<?xml version="1.0" encoding="utf-8"?>
<!-- Generator: Adobe Illustrator 17.0.0, SVG Export Plug-In . SVG Version: 6.00 Build 0)  -->
<!DOCTYPE svg PUBLIC "-//W3C//DTD SVG 1.0//EN" "http://www.w3.org/TR/2001/REC-SVG-20010904/DTD/svg10.dtd" [
	<!ENTITY ns_extend "http://ns.adobe.com/Extensibility/1.0/">
	<!ENTITY ns_ai "http://ns.adobe.com/AdobeIllustrator/10.0/">
	<!ENTITY ns_graphs "http://ns.adobe.com/Graphs/1.0/">
	<!ENTITY ns_vars "http://ns.adobe.com/Variables/1.0/">
	<!ENTITY ns_imrep "http://ns.adobe.com/ImageReplacement/1.0/">
	<!ENTITY ns_sfw "http://ns.adobe.com/SaveForWeb/1.0/">
	<!ENTITY ns_custom "http://ns.adobe.com/GenericCustomNamespace/1.0/">
	<!ENTITY ns_adobe_xpath "http://ns.adobe.com/XPath/1.0/">
]>
<svg version="1.0" id="Capa_1" xmlns:x="&ns_extend;" xmlns:i="&ns_ai;" xmlns:graph="&ns_graphs;"
	 xmlns="http://www.w3.org/2000/svg" xmlns:xlink="http://www.w3.org/1999/xlink" x="0px" y="0px" width="64.51px"
	 height="67.917px" viewBox="0 0 64.51 67.917" enable-background="new 0 0 64.51 67.917" xml:space="preserve">
<metadata>
	<sfw  xmlns="&ns_sfw;">
		<slices></slices>
		<sliceSourceBounds  width="52.962" height="57.196" y="-429.414" x="273.867" bottomLeftOrigin="true"></sliceSourceBounds>
	</sfw>
</metadata>
<g>
	<path fill="#E67A1E" d="M29.784,63.483c-14.065,0-25.508-11.442-25.508-25.507s11.443-25.508,25.508-25.508
		c0.475,0,0.86,0.385,0.86,0.86s-0.385,0.86-0.86,0.86c-13.116,0-23.787,10.671-23.787,23.787s10.671,23.787,23.787,23.787
		c13.116,0,23.787-10.671,23.787-23.787c0-0.475,0.385-0.86,0.86-0.86c0.475,0,0.86,0.385,0.86,0.86
		C55.292,52.04,43.849,63.483,29.784,63.483z"/>
	<path fill="#E67A1E" d="M29.784,63.483c-7.786,0-13.884-11.204-13.884-25.507s6.099-25.508,13.884-25.508
		c0.475,0,0.86,0.385,0.86,0.86s-0.385,0.86-0.86,0.86c-6.707,0-12.164,10.671-12.164,23.787s5.457,23.787,12.164,23.787
		s12.163-10.671,12.163-23.787c0-0.475,0.385-0.86,0.86-0.86c0.475,0,0.86,0.385,0.86,0.86
		C43.668,52.279,37.569,63.483,29.784,63.483z"/>
	<path fill="#E67A1E" d="M29.784,29.343H7.032c-0.475,0-0.86-0.385-0.86-0.86c0-0.475,0.385-0.86,0.86-0.86h22.752
		c0.475,0,0.86,0.385,0.86,0.86C30.645,28.958,30.259,29.343,29.784,29.343z"/>
	<path fill="#E67A1E" d="M53.253,46.961H6.511c-0.475,0-0.86-0.385-0.86-0.86c0-0.475,0.385-0.86,0.86-0.86h46.742
		c0.475,0,0.86,0.385,0.86,0.86C54.113,46.576,53.728,46.961,53.253,46.961z"/>
	<path fill="#E67A1E" d="M29.784,63.483c-0.475,0-0.86-0.385-0.86-0.86V39.796c0-0.475,0.385-0.86,0.86-0.86
		c0.475,0,0.86,0.385,0.86,0.86v22.827C30.645,63.098,30.259,63.483,29.784,63.483z"/>
	<path fill="#E67A1E" d="M45.933,35.957c-0.245,0-0.479-0.105-0.642-0.288c-0.436-0.489-10.663-12.05-10.663-18.077
		c0-6.234,5.072-11.305,11.305-11.305s11.305,5.072,11.305,11.305c0,6.027-10.227,17.588-10.663,18.077
		C46.412,35.852,46.178,35.957,45.933,35.957z M45.933,8.007c-5.285,0-9.585,4.299-9.585,9.585c0,4.159,6.408,12.492,9.585,16.196
		c3.176-3.705,9.585-12.04,9.585-16.196C55.517,12.307,51.218,8.007,45.933,8.007z"/>
	<path fill="#E67A1E" d="M45.933,23.293c-3.1,0-5.622-2.522-5.622-5.622s2.522-5.622,5.622-5.622c3.1,0,5.622,2.522,5.622,5.622
		S49.032,23.293,45.933,23.293z M45.933,13.771c-2.151,0-3.901,1.75-3.901,3.901s1.75,3.901,3.901,3.901
		c2.151,0,3.901-1.75,3.901-3.901S48.084,13.771,45.933,13.771z"/>
</g>
</svg>
