<?xml version="1.0" encoding="utf-8"?>
<!-- Generator: Adobe Illustrator 17.0.0, SVG Export Plug-In . SVG Version: 6.00 Build 0)  -->
<!DOCTYPE svg PUBLIC "-//W3C//DTD SVG 1.0//EN" "http://www.w3.org/TR/2001/REC-SVG-20010904/DTD/svg10.dtd" [
	<!ENTITY ns_extend "http://ns.adobe.com/Extensibility/1.0/">
	<!ENTITY ns_ai "http://ns.adobe.com/AdobeIllustrator/10.0/">
	<!ENTITY ns_graphs "http://ns.adobe.com/Graphs/1.0/">
	<!ENTITY ns_vars "http://ns.adobe.com/Variables/1.0/">
	<!ENTITY ns_imrep "http://ns.adobe.com/ImageReplacement/1.0/">
	<!ENTITY ns_sfw "http://ns.adobe.com/SaveForWeb/1.0/">
	<!ENTITY ns_custom "http://ns.adobe.com/GenericCustomNamespace/1.0/">
	<!ENTITY ns_adobe_xpath "http://ns.adobe.com/XPath/1.0/">
]>
<svg version="1.0" id="Capa_1" xmlns:x="&ns_extend;" xmlns:i="&ns_ai;" xmlns:graph="&ns_graphs;"
	 xmlns="http://www.w3.org/2000/svg" xmlns:xlink="http://www.w3.org/1999/xlink" x="0px" y="0px" width="75px" height="61.207px"
	 viewBox="0 0 75 61.207" enable-background="new 0 0 75 61.207" xml:space="preserve">
<metadata>
	<sfw  xmlns="&ns_sfw;">
		<slices></slices>
		<sliceSourceBounds  width="58.904" height="43.764" y="-420.382" x="270.016" bottomLeftOrigin="true"></sliceSourceBounds>
	</sfw>
</metadata>
<g>
	<path fill="#E67A1E" d="M61.044,54.451c-0.701,0-2.514-0.139-3.947-1.456c-1.233-1.134-1.859-2.811-1.859-4.983V25.96
		c0-0.552,0.447-1,1-1h10.131c0.553,0,1,0.448,1,1v22.47c0,3.316-2.698,6.015-6.015,6.015c-0.017,0-0.033,0-0.05-0.001
		C61.258,54.447,61.169,54.451,61.044,54.451z M57.237,26.96v21.051c0,1.59,0.408,2.771,1.213,3.511
		c1.12,1.031,2.701,0.928,2.718,0.927c0.047-0.004,0.092-0.006,0.136-0.003c0.017-0.001,0.033-0.001,0.05-0.001
		c2.214,0,4.015-1.801,4.015-4.015V26.96H57.237z"/>
	<path fill="#E67A1E" d="M61.399,54.445h-46.92c-3.317,0-6.015-2.698-6.015-6.015V11.687c0-0.552,0.448-1,1-1h46.773
		c0.553,0,1,0.448,1,1V24.96h9.029c0.553,0,1,0.448,1,1v22.47c0,3.233-2.564,5.879-5.766,6.01
		C61.468,54.443,61.434,54.445,61.399,54.445z M57.237,26.96v21.47c0,2.214,1.801,4.015,4.015,4.015s4.015-1.801,4.015-4.015V26.96
		H57.237z M10.464,12.687V48.43c0,2.214,1.801,4.015,4.015,4.015h42.298c-0.957-1.065-1.54-2.474-1.54-4.015V12.687H10.464z"/>
	<path fill="#E67A1E" d="M57.056,52.552c-0.553,0-1-0.447-1-1s0.447-1,1-1c2.214,0,4.015-1.801,4.015-4.015V25.96
		c0-0.552,0.447-1,1-1s1,0.448,1,1v20.578C63.07,49.854,60.372,52.552,57.056,52.552z"/>
	<path fill="#E67A1E" d="M51.608,26.96H14.662c-0.552,0-1-0.448-1-1v-9.741c0-0.552,0.448-1,1-1h36.946c0.553,0,1,0.448,1,1v9.741
		C52.608,26.512,52.161,26.96,51.608,26.96z M15.662,24.96h34.946v-7.741H15.662V24.96z"/>
	<path fill="#E67A1E" d="M51.608,49.37H36.949c-0.552,0-1-0.447-1-1V30.396c0-0.552,0.448-1,1-1h14.659c0.553,0,1,0.448,1,1V48.37
		C52.608,48.922,52.161,49.37,51.608,49.37z M37.949,47.37h12.659V31.396H37.949V47.37z"/>
	<path fill="#E67A1E" d="M25.558,32.843H13.969c-0.552,0-1-0.448-1-1s0.448-1,1-1h11.589c0.552,0,1,0.448,1,1
		S26.11,32.843,25.558,32.843z"/>
	<path fill="#E67A1E" d="M32.095,38.05H13.969c-0.552,0-1-0.447-1-1s0.448-1,1-1h18.126c0.552,0,1,0.447,1,1
		S32.647,38.05,32.095,38.05z"/>
	<path fill="#E67A1E" d="M25.558,43.258H13.969c-0.552,0-1-0.447-1-1s0.448-1,1-1h11.589c0.552,0,1,0.447,1,1
		S26.11,43.258,25.558,43.258z"/>
	<path fill="#E67A1E" d="M32.095,48.465H13.969c-0.552,0-1-0.447-1-1s0.448-1,1-1h18.126c0.552,0,1,0.447,1,1
		S32.647,48.465,32.095,48.465z"/>
</g>
</svg>
