<?xml version="1.0" encoding="utf-8"?>
<!-- Generator: Adobe Illustrator 17.0.0, SVG Export Plug-In . SVG Version: 6.00 Build 0)  -->
<!DOCTYPE svg PUBLIC "-//W3C//DTD SVG 1.0//EN" "http://www.w3.org/TR/2001/REC-SVG-20010904/DTD/svg10.dtd" [
	<!ENTITY ns_extend "http://ns.adobe.com/Extensibility/1.0/">
	<!ENTITY ns_ai "http://ns.adobe.com/AdobeIllustrator/10.0/">
	<!ENTITY ns_graphs "http://ns.adobe.com/Graphs/1.0/">
	<!ENTITY ns_vars "http://ns.adobe.com/Variables/1.0/">
	<!ENTITY ns_imrep "http://ns.adobe.com/ImageReplacement/1.0/">
	<!ENTITY ns_sfw "http://ns.adobe.com/SaveForWeb/1.0/">
	<!ENTITY ns_custom "http://ns.adobe.com/GenericCustomNamespace/1.0/">
	<!ENTITY ns_adobe_xpath "http://ns.adobe.com/XPath/1.0/">
]>
<svg version="1.0" id="Capa_1" xmlns:x="&ns_extend;" xmlns:i="&ns_ai;" xmlns:graph="&ns_graphs;"
	 xmlns="http://www.w3.org/2000/svg" xmlns:xlink="http://www.w3.org/1999/xlink" x="0px" y="0px" width="30.366px"
	 height="30.099px" viewBox="0 0 30.366 30.099" enable-background="new 0 0 30.366 30.099" xml:space="preserve">
<metadata>
	<sfw  xmlns="&ns_sfw;">
		<slices></slices>
		<sliceSourceBounds  height="28.706" width="28.705" y="-415.135" x="285.631" bottomLeftOrigin="true"></sliceSourceBounds>
	</sfw>
</metadata>
<path fill="#E67A1E" d="M15.183,0.697C7.256,0.697,0.83,7.123,0.83,15.05s6.426,14.353,14.353,14.353s14.353-6.426,14.353-14.353
	S23.11,0.697,15.183,0.697z M9.438,21.223c0,0.411-0.333,0.744-0.744,0.744c-0.411,0-0.744-0.333-0.744-0.744v-9.961
	c0-0.411,0.333-0.744,0.744-0.744c0.411,0,0.744,0.333,0.744,0.744V21.223z M8.716,9.62H8.673c-0.411,0-0.744-0.333-0.744-0.744
	s0.333-0.744,0.744-0.744h0.043c0.411,0,0.744,0.333,0.744,0.744S9.127,9.62,8.716,9.62z M22.436,21.223
	c0,0.411-0.333,0.744-0.744,0.744c-0.411,0-0.744-0.333-0.744-0.744v-5.189c0-2.947-2.596-3.726-3.969-3.726
	s-3.969,0.779-3.969,3.726v5.189c0,0.411-0.333,0.744-0.744,0.744s-0.744-0.333-0.744-0.744v-9.961c0-0.411,0.333-0.744,0.744-0.744
	s0.744,0.333,0.744,0.744v1.094c1.045-1.012,2.51-1.535,3.969-1.535c2.711,0,5.456,1.791,5.456,5.213V21.223z"/>
</svg>
