<?xml version="1.0" encoding="utf-8"?>
<!-- Generator: Adobe Illustrator 16.0.0, SVG Export Plug-In . SVG Version: 6.00 Build 0)  -->
<!DOCTYPE svg PUBLIC "-//W3C//DTD SVG 1.1//EN" "http://www.w3.org/Graphics/SVG/1.1/DTD/svg11.dtd">
<svg version="1.1" id="Capa_1" xmlns="http://www.w3.org/2000/svg" xmlns:xlink="http://www.w3.org/1999/xlink" x="0px" y="0px"
	 width="32px" height="32px" viewBox="0 0 32 32" enable-background="new 0 0 32 32" xml:space="preserve">
<rect y="-144.265" fill="none" width="77.366" height="7.167"/>
<text transform="matrix(1 0 0 1 0 -138.585)" font-family="'MyriadPro-Regular'" font-size="8">Social 32</text>
<rect y="-79.82" fill="none" width="77.366" height="7.167"/>
<text transform="matrix(1 0 0 1 0 -74.1406)" font-family="'MyriadPro-Regular'" font-size="8">Shopping Cart 32</text>
<rect y="-11.66" fill="none" width="77.366" height="7.168"/>
<text transform="matrix(1 0 0 1 0 -5.9795)" font-family="'MyriadPro-Regular'" font-size="8">Menu responsive 32</text>
<rect y="56.007" fill="none" width="77.366" height="7.168"/>
<text transform="matrix(1 0 0 1 0 61.6875)" font-family="'MyriadPro-Regular'" font-size="8">Search 32</text>
<rect x="124.891" y="-79.82" fill="none" width="102.584" height="7.167"/>
<text transform="matrix(1 0 0 1 124.8906 -74.1406)" font-family="'MyriadPro-Regular'" font-size="8">Logo Responsive. Altura:32</text>
<rect x="246.891" y="-144.265" fill="none" width="47.854" height="7.167"/>
<text transform="matrix(1 0 0 1 246.8906 -138.585)" font-family="'MyriadPro-Regular'" font-size="8">Social 16</text>
<g>
	
		<line fill="none" stroke="#000000" stroke-linecap="round" stroke-linejoin="round" stroke-miterlimit="10" x1="6" y1="11" x2="26" y2="11"/>
	
		<line fill="none" stroke="#000000" stroke-linecap="round" stroke-linejoin="round" stroke-miterlimit="10" x1="6" y1="16" x2="26" y2="16"/>
	
		<line fill="none" stroke="#000000" stroke-linecap="round" stroke-linejoin="round" stroke-miterlimit="10" x1="6" y1="21" x2="26" y2="21"/>
</g>
<g>
	<circle fill="none" stroke="#232323" stroke-miterlimit="10" cx="13.822" cy="82.822" r="7.737"/>
	
		<line fill="none" stroke="#232323" stroke-linecap="round" stroke-linejoin="round" stroke-miterlimit="10" x1="19.293" y1="88.293" x2="25.661" y2="94.66"/>
</g>
<g>
	
		<line fill="none" stroke="#232323" stroke-linecap="round" stroke-linejoin="round" stroke-miterlimit="10" x1="132.65" y1="1.369" x2="132.65" y2="14.733"/>
	
		<line fill="none" stroke="#232323" stroke-linecap="round" stroke-linejoin="round" stroke-miterlimit="10" x1="125.969" y1="8.052" x2="139.332" y2="8.052"/>
</g>
<line fill="none" stroke="#232323" stroke-linecap="round" stroke-linejoin="round" stroke-miterlimit="10" x1="148.974" y1="1.369" x2="148.974" y2="14.733"/>
<line fill="none" stroke="#232323" stroke-linecap="round" stroke-linejoin="round" stroke-miterlimit="10" x1="142.292" y1="8.052" x2="155.655" y2="8.052"/>
<line fill="none" stroke="#232323" stroke-linecap="round" stroke-linejoin="round" stroke-miterlimit="10" x1="143.442" y1="23.961" x2="154.505" y2="23.961"/>
<line fill="none" stroke="#232323" stroke-linecap="round" stroke-linejoin="round" stroke-miterlimit="10" x1="127.119" y1="23.961" x2="138.182" y2="23.961"/>
<g>
	<polyline fill="none" stroke="#232323" stroke-linecap="round" stroke-linejoin="round" stroke-miterlimit="10" points="
		1.76,-64.013 4.549,-64.013 10.221,-48.366 24.922,-49.359 28.656,-59.947 5.742,-60.751 	"/>
	
		<line fill="none" stroke="#232323" stroke-linecap="round" stroke-linejoin="round" stroke-miterlimit="10" x1="7.172" y1="-56.804" x2="27.428" y2="-56.119"/>
	
		<line fill="none" stroke="#232323" stroke-linecap="round" stroke-linejoin="round" stroke-miterlimit="10" x1="8.756" y1="-52.37" x2="26.127" y2="-52.721"/>
	
		<line fill="none" stroke="#232323" stroke-linecap="round" stroke-linejoin="round" stroke-miterlimit="10" x1="10.221" y1="-60.562" x2="13.553" y2="-48.579"/>
	
		<line fill="none" stroke="#232323" stroke-linecap="round" stroke-linejoin="round" stroke-miterlimit="10" x1="15.456" y1="-60.396" x2="16.226" y2="-48.756"/>
	
		<line fill="none" stroke="#232323" stroke-linecap="round" stroke-linejoin="round" stroke-miterlimit="10" x1="20.195" y1="-60.219" x2="20.101" y2="-49.028"/>
	
		<line fill="none" stroke="#232323" stroke-linecap="round" stroke-linejoin="round" stroke-miterlimit="10" x1="24.662" y1="-60.078" x2="23.184" y2="-49.229"/>
	
		<line fill="none" stroke="#232323" stroke-linecap="round" stroke-linejoin="round" stroke-miterlimit="10" x1="10.221" y1="-48.366" x2="8.803" y2="-44.916"/>
	
		<line fill="none" stroke="#232323" stroke-linecap="round" stroke-linejoin="round" stroke-miterlimit="10" x1="14.45" y1="-48.65" x2="12.916" y2="-44.916"/>
	
		<line fill="none" stroke="#232323" stroke-linecap="round" stroke-linejoin="round" stroke-miterlimit="10" x1="7.267" y1="-44.916" x2="22.109" y2="-44.916"/>
	
		<circle fill="none" stroke="#232323" stroke-linecap="round" stroke-linejoin="round" stroke-miterlimit="10" cx="7.267" cy="-43.143" r="1.772"/>
	
		<circle fill="none" stroke="#232323" stroke-linecap="round" stroke-linejoin="round" stroke-miterlimit="10" cx="22.109" cy="-43.143" r="1.772"/>
</g>
<g>
	<path fill="#232323" d="M127.88-44.5v-19.559h2.794v17.463h4.89v2.096H127.88z"/>
	<path fill="#232323" d="M141.904-44.304c-0.982,0-1.824-0.149-2.527-0.447c-0.701-0.298-1.26-0.735-1.676-1.31
		c-0.413-0.575-0.716-1.25-0.905-2.024c-0.188-0.776-0.283-1.676-0.283-2.702v-7.094c0-1.026,0.095-1.921,0.283-2.685
		c0.189-0.764,0.492-1.428,0.905-1.992c0.416-0.564,0.975-0.988,1.676-1.271c0.703-0.284,1.545-0.426,2.527-0.426
		c1.906,0,3.281,0.546,4.125,1.637c0.845,1.091,1.267,2.67,1.267,4.737v7.094c0,1.011-0.097,1.904-0.289,2.68
		c-0.193,0.774-0.497,1.451-0.911,2.03c-0.415,0.578-0.974,1.019-1.676,1.32C143.718-44.456,142.879-44.304,141.904-44.304z
		 M139.869-47.48c0.374,0.589,1.053,0.884,2.035,0.884s1.661-0.294,2.035-0.884c0.375-0.589,0.563-1.459,0.563-2.609v-8.491
		c0-1.135-0.186-1.982-0.558-2.543c-0.37-0.56-1.051-0.84-2.04-0.84s-1.671,0.28-2.041,0.84c-0.372,0.561-0.557,1.408-0.557,2.543
		v8.491C139.307-48.939,139.494-48.069,139.869-47.48z"/>
	<path fill="#232323" d="M154.979-44.304c-0.896,0-1.672-0.127-2.33-0.382c-0.658-0.255-1.196-0.601-1.609-1.037
		c-0.416-0.437-0.746-0.993-0.994-1.67c-0.247-0.676-0.419-1.39-0.513-2.139c-0.095-0.749-0.142-1.611-0.142-2.586v-4.955
		c0-4.788,1.898-7.182,5.697-7.182c0.909,0,1.698,0.136,2.368,0.41c0.669,0.272,1.211,0.671,1.626,1.195s0.728,1.137,0.938,1.839
		s0.335,1.515,0.371,2.439c0.008,0.131,0.011,0.331,0.011,0.6h-2.794v-0.589c-0.008-0.458-0.03-0.853-0.07-1.184
		s-0.113-0.657-0.219-0.977c-0.105-0.32-0.25-0.58-0.431-0.781c-0.183-0.2-0.424-0.36-0.727-0.48c-0.301-0.12-0.66-0.18-1.074-0.18
		c-0.567,0-1.046,0.104-1.436,0.311c-0.389,0.208-0.688,0.51-0.896,0.906c-0.207,0.396-0.354,0.833-0.441,1.31
		c-0.088,0.477-0.131,1.031-0.131,1.664v6.287c0,0.466,0.015,0.886,0.043,1.261c0.029,0.375,0.078,0.756,0.148,1.145
		c0.068,0.39,0.17,0.726,0.306,1.01c0.134,0.284,0.301,0.54,0.502,0.77c0.199,0.229,0.451,0.403,0.752,0.524
		c0.303,0.12,0.65,0.18,1.043,0.18c0.466,0,0.869-0.091,1.212-0.273c0.341-0.182,0.612-0.416,0.813-0.704
		c0.2-0.287,0.357-0.653,0.475-1.097c0.116-0.444,0.195-0.884,0.234-1.32c0.041-0.437,0.061-0.935,0.061-1.496v-0.698h-2.794v-2.074
		h5.588v9.757h-2.096l-0.698-2.096C157.228-45.068,156.297-44.304,154.979-44.304z"/>
	<path fill="#232323" d="M167.87-44.304c-0.982,0-1.825-0.149-2.527-0.447s-1.26-0.735-1.676-1.31
		c-0.413-0.575-0.716-1.25-0.905-2.024c-0.189-0.776-0.283-1.676-0.283-2.702v-7.094c0-1.026,0.094-1.921,0.283-2.685
		s0.492-1.428,0.905-1.992c0.416-0.564,0.974-0.988,1.676-1.271s1.545-0.426,2.527-0.426c1.906,0,3.281,0.546,4.125,1.637
		c0.845,1.091,1.267,2.67,1.267,4.737v7.094c0,1.011-0.097,1.904-0.289,2.68c-0.193,0.774-0.497,1.451-0.912,2.03
		c-0.414,0.578-0.973,1.019-1.676,1.32C169.684-44.456,168.845-44.304,167.87-44.304z M165.834-47.48
		c0.375,0.589,1.054,0.884,2.036,0.884c0.981,0,1.661-0.294,2.035-0.884c0.375-0.589,0.562-1.459,0.562-2.609v-8.491
		c0-1.135-0.185-1.982-0.557-2.543c-0.37-0.56-1.051-0.84-2.04-0.84c-0.99,0-1.671,0.28-2.041,0.84
		c-0.372,0.561-0.557,1.408-0.557,2.543v8.491C165.272-48.939,165.459-48.069,165.834-47.48z"/>
	<path fill="#232323" d="M180.246-44.5v-19.559h3.493c2.081,0,3.648,0.404,4.704,1.211c1.055,0.808,1.582,2.15,1.582,4.027
		c0,1.165-0.208,2.14-0.621,2.925c-0.416,0.786-1.023,1.324-1.823,1.615l3.144,9.779h-2.772l-2.816-9.081h-2.095v9.081H180.246z
		 M183.041-55.677h0.698c1.164,0,2.037-0.245,2.619-0.737c0.582-0.491,0.873-1.293,0.873-2.407s-0.291-1.916-0.873-2.406
		c-0.582-0.492-1.455-0.737-2.619-0.737h-0.698V-55.677z"/>
	<path fill="#232323" d="M192.34-44.5v-19.559h7.684v2.096h-4.89v6.287h3.492v2.096h-3.492v6.985h4.89v2.096H192.34z"/>
	<path fill="#232323" d="M206.834-44.304c-1.763,0-3.106-0.517-4.033-1.55c-0.929-1.033-1.447-2.445-1.556-4.235l2.794-0.698
		c0.138,2.794,1.069,4.191,2.795,4.191c1.396,0,2.095-0.698,2.095-2.096c0-0.415-0.057-0.798-0.169-1.151
		c-0.113-0.353-0.286-0.677-0.519-0.971c-0.233-0.295-0.444-0.531-0.634-0.71c-0.188-0.178-0.447-0.398-0.773-0.66l-3.493-2.794
		c-0.642-0.502-1.151-1.14-1.534-1.916c-0.381-0.774-0.572-1.657-0.572-2.646c0-1.44,0.447-2.586,1.342-3.438
		c0.896-0.851,2.081-1.277,3.559-1.277c1.586,0,2.847,0.388,3.781,1.162c0.936,0.775,1.512,1.872,1.73,3.291
		c0.021,0.153,0.047,0.364,0.076,0.633l-2.794,0.699c-0.008-0.124-0.025-0.31-0.055-0.557c-0.124-0.888-0.402-1.599-0.835-2.134
		c-0.434-0.535-1.068-0.802-1.904-0.802c-0.67,0-1.187,0.188-1.551,0.563c-0.363,0.375-0.545,0.896-0.545,1.566
		c0,1.099,0.465,2.019,1.397,2.761l3.492,2.794c1.862,1.506,2.794,3.307,2.794,5.403c0,1.433-0.442,2.554-1.326,3.361
		C209.512-44.708,208.324-44.304,206.834-44.304z"/>
	<path fill="#232323" d="M213.764-44.5v-19.559h4.89c3.26,0,4.89,1.863,4.89,5.588c0,1.593-0.42,2.807-1.261,3.64
		c-0.84,0.833-2.05,1.25-3.629,1.25h-2.096v9.081H213.764z M216.558-55.677h0.698c0.633,0,1.152-0.037,1.556-0.109
		c0.404-0.073,0.761-0.208,1.069-0.409c0.31-0.2,0.531-0.485,0.666-0.856s0.202-0.844,0.202-1.419c0-0.699-0.052-1.264-0.153-1.698
		c-0.102-0.432-0.289-0.787-0.563-1.063c-0.271-0.277-0.625-0.467-1.058-0.573c-0.434-0.105-1.007-0.158-1.72-0.158h-0.698V-55.677z
		"/>
	<path fill="#232323" d="M230.168-44.304c-0.982,0-1.824-0.149-2.526-0.447s-1.26-0.735-1.676-1.31
		c-0.414-0.575-0.716-1.25-0.905-2.024c-0.189-0.776-0.284-1.676-0.284-2.702v-7.094c0-1.026,0.095-1.921,0.284-2.685
		s0.491-1.428,0.905-1.992c0.416-0.564,0.974-0.988,1.676-1.271s1.544-0.426,2.526-0.426c1.906,0,3.281,0.546,4.126,1.637
		c0.844,1.091,1.266,2.67,1.266,4.737v7.094c0,1.011-0.097,1.904-0.289,2.68c-0.193,0.774-0.496,1.451-0.911,2.03
		c-0.415,0.578-0.973,1.019-1.676,1.32C231.982-44.456,231.144-44.304,230.168-44.304z M228.133-47.48
		c0.374,0.589,1.053,0.884,2.035,0.884s1.661-0.294,2.035-0.884c0.376-0.589,0.563-1.459,0.563-2.609v-8.491
		c0-1.135-0.185-1.982-0.557-2.543c-0.37-0.56-1.051-0.84-2.041-0.84c-0.989,0-1.67,0.28-2.04,0.84
		c-0.372,0.561-0.558,1.408-0.558,2.543v8.491C227.57-48.939,227.758-48.069,228.133-47.48z"/>
	<path fill="#232323" d="M238.005-44.5v-19.559h2.096l4.89,12.093v-12.093h2.794V-44.5h-1.987l-4.998-13.01v13.01H238.005z"/>
	<path fill="#232323" d="M255.676-44.304c-1.763,0-3.106-0.517-4.033-1.55c-0.929-1.033-1.447-2.445-1.556-4.235l2.794-0.698
		c0.138,2.794,1.069,4.191,2.795,4.191c1.396,0,2.095-0.698,2.095-2.096c0-0.415-0.057-0.798-0.169-1.151
		c-0.113-0.353-0.286-0.677-0.519-0.971c-0.233-0.295-0.444-0.531-0.634-0.71c-0.188-0.178-0.447-0.398-0.773-0.66l-3.493-2.794
		c-0.642-0.502-1.151-1.14-1.534-1.916c-0.381-0.774-0.572-1.657-0.572-2.646c0-1.44,0.447-2.586,1.342-3.438
		c0.896-0.851,2.081-1.277,3.559-1.277c1.586,0,2.846,0.388,3.781,1.162c0.935,0.775,1.512,1.872,1.73,3.291
		c0.021,0.153,0.047,0.364,0.076,0.633l-2.794,0.699c-0.008-0.124-0.025-0.31-0.055-0.557c-0.124-0.888-0.402-1.599-0.835-2.134
		c-0.434-0.535-1.068-0.802-1.904-0.802c-0.67,0-1.187,0.188-1.551,0.563c-0.363,0.375-0.545,0.896-0.545,1.566
		c0,1.099,0.465,2.019,1.397,2.761l3.492,2.794c1.862,1.506,2.794,3.307,2.794,5.403c0,1.433-0.442,2.554-1.326,3.361
		C258.354-44.708,257.166-44.304,255.676-44.304z"/>
	<path fill="#232323" d="M262.736-44.5v-19.559h2.794V-44.5H262.736z"/>
	<path fill="#232323" d="M271.446-44.5l-4.191-19.559h2.794l2.063,10.478l0.721,4.889l0.742-4.889l2.063-10.478h2.794L274.24-44.5
		H271.446z"/>
	<path fill="#232323" d="M279.959-44.5v-19.559h7.684v2.096h-4.89v6.287h3.493v2.096h-3.493v6.985h4.89v2.096H279.959z"/>
</g>
<g>
	<path fill="#232323" d="M175.026-115.788c-0.533,2.799-1.186,5.483-3.117,6.885c-0.597-4.23,0.875-7.408,1.559-10.782
		c-1.165-1.961,0.141-5.909,2.599-4.937c3.024,1.197-2.619,7.293,1.169,8.055c3.955,0.795,5.57-6.863,3.117-9.354
		c-3.543-3.596-10.315-0.082-9.482,5.066c0.202,1.259,1.503,1.641,0.52,3.378c-2.269-0.503-2.945-2.292-2.857-4.677
		c0.14-3.903,3.507-6.637,6.885-7.015c4.271-0.479,8.279,1.567,8.833,5.586c0.624,4.534-1.928,9.446-6.495,9.093
		C176.517-114.585,175.997-115.198,175.026-115.788z"/>
	<path fill="#232323" d="M135.655-123.888c0,1.666,0.559,2.87,1.654,3.576c0.899,0.578,1.941,0.667,2.483,0.667
		c0.132,0,0.237-0.006,0.313-0.011c0,0-0.175,1.119,0.656,2.227h-0.036c-1.439,0-6.128,0.3-6.128,4.156
		c0,3.923,4.306,4.121,5.171,4.121c0.067,0,0.107,0,0.107,0c0.008,0,0.071,0.003,0.177,0.003c0.553,0,1.988-0.07,3.319-0.717
		c1.726-0.84,2.603-2.297,2.603-4.335c0-1.969-1.335-3.141-2.309-3.997c-0.594-0.521-1.11-0.972-1.11-1.409
		c0-0.447,0.376-0.782,0.852-1.208c0.77-0.688,1.492-1.667,1.492-3.515c0-1.626-0.211-2.719-1.509-3.41
		c0.135-0.069,0.614-0.119,0.851-0.152c0.705-0.096,1.733-0.206,1.733-0.78v-0.111h-5.13
		C140.793-128.781,135.655-128.591,135.655-123.888z M143.938-113.833c0.098,1.569-1.243,2.728-3.26,2.874
		c-2.047,0.148-3.732-0.771-3.829-2.34c-0.048-0.752,0.284-1.491,0.932-2.077c0.656-0.596,1.56-0.964,2.541-1.035
		c0.116-0.009,0.23-0.012,0.346-0.012C142.563-116.423,143.845-115.311,143.938-113.833z M142.598-124.961
		c0.504,1.771-0.256,3.621-1.467,3.963c-0.14,0.038-0.284,0.059-0.43,0.059c-1.108,0-2.208-1.123-2.615-2.668
		c-0.228-0.868-0.208-1.628,0.053-2.358c0.256-0.719,0.717-1.203,1.297-1.367c0.139-0.038,0.282-0.059,0.428-0.059
		C141.202-127.392,142.064-126.836,142.598-124.961z M151.242-121.105v-3.347h-2.119v3.347h-3.347v2.12h3.347v3.346h2.119v-3.346
		h3.347v-2.12H151.242z"/>
	<path fill="#232323" d="M21.885-125.515h-3.187c-0.376,0-0.797,0.495-0.797,1.158v2.301h3.983v3.281h-3.983v9.849H14.14v-9.849
		h-3.41v-3.281h3.41v-1.931c0-2.767,1.921-5.02,4.559-5.02h3.187V-125.515z"/>
	<path fill="#232323" d="M58.642-125.333c-0.757,0.336-1.567,0.563-2.42,0.665c0.871-0.522,1.539-1.348,1.852-2.331
		c-0.813,0.483-1.714,0.834-2.673,1.022c-0.769-0.818-1.863-1.33-3.074-1.33c-2.325,0-4.211,1.886-4.211,4.212
		c0,0.329,0.037,0.65,0.108,0.958c-3.499-0.175-6.604-1.852-8.679-4.4c-0.364,0.623-0.571,1.347-0.571,2.118
		c0,1.46,0.743,2.75,1.874,3.505c-0.69-0.022-1.34-0.211-1.908-0.525c-0.001,0.017-0.001,0.034-0.001,0.052
		c0,2.04,1.453,3.743,3.38,4.129c-0.354,0.097-0.725,0.148-1.109,0.148c-0.271,0-0.537-0.026-0.793-0.076
		c0.534,1.674,2.09,2.892,3.934,2.925c-1.442,1.129-3.257,1.805-5.229,1.805c-0.341,0-0.676-0.021-1.005-0.062
		c1.863,1.196,4.076,1.894,6.455,1.894c7.748,0,11.982-6.418,11.982-11.982c0-0.182-0.004-0.363-0.012-0.545
		C57.363-123.746,58.078-124.488,58.642-125.333z"/>
	<path fill="#232323" d="M86.25-118.965c0,3.202-2.597,5.8-5.799,5.8c-3.205,0-5.802-2.598-5.802-5.8
		c0-0.383,0.038-0.755,0.108-1.116h-3.901v7.71c0,1.655,1.341,2.998,2.998,2.998h13.192c1.654,0,2.996-1.343,2.996-2.998v-7.71
		h-3.899C86.212-119.72,86.25-119.348,86.25-118.965z M87.047-128.56H73.854c-1.657,0-2.998,1.342-2.998,2.998v3.248h4.856
		c1.051-1.483,2.779-2.454,4.738-2.454c1.955,0,3.685,0.971,4.735,2.454h4.856v-3.248C90.043-127.218,88.701-128.56,87.047-128.56z
		 M88.513-124.856c0,0.295-0.241,0.536-0.538,0.536H86.37c-0.294,0-0.536-0.241-0.536-0.536v-1.606c0-0.294,0.242-0.534,0.536-0.534
		h1.604c0.297,0,0.538,0.24,0.538,0.534V-124.856z M84.021-118.965c0-1.973-1.6-3.572-3.569-3.572c-1.974,0-3.57,1.6-3.57,3.572
		c0,1.971,1.597,3.569,3.57,3.569C82.421-115.396,84.021-116.994,84.021-118.965z"/>
	<path fill="#232323" d="M122.562-118.965c0,8.183-1.855,7.809-10.04,7.809s-10.04,0.374-10.04-7.809
		c0-8.185,1.855-7.811,10.04-7.811S122.562-127.149,122.562-118.965z M115.717-119.242l-4.605-2.854
		c-0.335-0.22-0.611-0.059-0.611,0.36v5.539c0,0.418,0.276,0.579,0.611,0.359l4.605-2.854c0,0,0.163-0.114,0.163-0.274
		C115.88-119.126,115.717-119.242,115.717-119.242z"/>
</g>
<g>
	<path fill="#232323" d="M334.24-125.755c-0.268,1.406-0.596,2.754-1.565,3.458c-0.3-2.125,0.44-3.72,0.784-5.415
		c-0.586-0.985,0.069-2.967,1.305-2.479c1.518,0.601-1.315,3.663,0.587,4.045c1.985,0.399,2.797-3.446,1.564-4.698
		c-1.778-1.806-5.181-0.041-4.762,2.545c0.102,0.632,0.756,0.824,0.262,1.696c-1.141-0.252-1.48-1.151-1.435-2.349
		c0.069-1.96,1.76-3.333,3.456-3.523c2.146-0.239,4.158,0.788,4.436,2.806c0.314,2.277-0.967,4.745-3.261,4.567
		C334.99-125.15,334.729-125.458,334.24-125.755z"/>
	<path fill="#232323" d="M314.468-129.823c0,0.838,0.28,1.441,0.831,1.796c0.451,0.29,0.975,0.335,1.248,0.335
		c0.065,0,0.119-0.002,0.156-0.005c0,0-0.088,0.562,0.33,1.118h-0.019c-0.723,0-3.078,0.15-3.078,2.087
		c0,1.97,2.162,2.07,2.598,2.07c0.032,0,0.053,0,0.053,0c0.005,0,0.037,0.001,0.091,0.001c0.276,0,0.998-0.035,1.665-0.36
		c0.867-0.421,1.308-1.152,1.308-2.176c0-0.989-0.671-1.577-1.159-2.007c-0.299-0.261-0.558-0.488-0.558-0.708
		c0-0.225,0.189-0.394,0.427-0.607c0.388-0.345,0.751-0.837,0.751-1.765c0-0.817-0.105-1.365-0.76-1.713
		c0.07-0.035,0.309-0.06,0.429-0.076c0.354-0.048,0.87-0.104,0.87-0.393v-0.055h-2.575
		C317.048-132.28,314.468-132.185,314.468-129.823z M318.629-124.772c0.048,0.788-0.625,1.37-1.637,1.444
		c-1.029,0.074-1.875-0.388-1.924-1.175c-0.024-0.378,0.144-0.749,0.467-1.043c0.331-0.299,0.784-0.484,1.276-0.52
		c0.06-0.004,0.116-0.006,0.175-0.006C317.938-126.073,318.58-125.515,318.629-124.772z M317.955-130.361
		c0.253,0.888-0.129,1.818-0.737,1.99c-0.068,0.02-0.142,0.03-0.215,0.03c-0.558,0-1.109-0.564-1.314-1.34
		c-0.113-0.436-0.104-0.818,0.027-1.185c0.128-0.361,0.359-0.604,0.651-0.687c0.069-0.02,0.142-0.03,0.214-0.03
		C317.255-131.582,317.688-131.303,317.955-130.361z M322.295-128.425v-1.68h-1.063v1.68h-1.681v1.065h1.681v1.68h1.063v-1.68h1.682
		v-1.065H322.295z"/>
	<path fill="#232323" d="M257.332-130.639h-1.601c-0.188,0-0.4,0.249-0.4,0.582v1.155h2.001v1.648h-2.001v4.945h-1.89v-4.945h-1.712
		v-1.648h1.712v-0.97c0-1.389,0.966-2.521,2.29-2.521h1.601V-130.639z"/>
	<path fill="#232323" d="M275.792-130.548c-0.382,0.169-0.788,0.283-1.216,0.334c0.437-0.263,0.773-0.677,0.93-1.171
		c-0.408,0.243-0.86,0.419-1.342,0.514c-0.387-0.412-0.936-0.668-1.543-0.668c-1.169,0-2.115,0.947-2.115,2.115
		c0,0.165,0.018,0.327,0.054,0.48c-1.758-0.087-3.317-0.93-4.358-2.209c-0.184,0.313-0.288,0.676-0.288,1.063
		c0,0.734,0.374,1.381,0.942,1.76c-0.348-0.011-0.674-0.106-0.959-0.264c0,0.009,0,0.018,0,0.026c0,1.024,0.729,1.88,1.697,2.074
		c-0.177,0.048-0.365,0.075-0.557,0.075c-0.137,0-0.271-0.014-0.398-0.039c0.268,0.841,1.049,1.452,1.975,1.469
		c-0.725,0.567-1.636,0.907-2.626,0.907c-0.172,0-0.339-0.011-0.505-0.031c0.936,0.601,2.047,0.951,3.241,0.951
		c3.892,0,6.02-3.223,6.02-6.018c0-0.091-0.002-0.183-0.006-0.273C275.148-129.751,275.509-130.124,275.792-130.548z"/>
	<path fill="#232323" d="M289.656-127.35c0,1.608-1.304,2.913-2.912,2.913s-2.913-1.304-2.913-2.913
		c0-0.192,0.019-0.378,0.054-0.561h-1.959v3.872c0,0.832,0.674,1.506,1.505,1.506h6.626c0.83,0,1.506-0.674,1.506-1.506v-3.872
		h-1.96C289.637-127.729,289.656-127.542,289.656-127.35z M290.057-132.169h-6.626c-0.831,0-1.505,0.674-1.505,1.506v1.631h2.438
		c0.527-0.745,1.396-1.231,2.38-1.231s1.85,0.487,2.378,1.231h2.44v-1.631C291.563-131.495,290.887-132.169,290.057-132.169z
		 M290.793-130.309c0,0.149-0.122,0.269-0.27,0.269h-0.807c-0.147,0-0.269-0.12-0.269-0.269v-0.807c0-0.147,0.121-0.268,0.269-0.268
		h0.807c0.147,0,0.27,0.121,0.27,0.268V-130.309z M288.537-127.35c0-0.99-0.804-1.794-1.793-1.794c-0.99,0-1.793,0.804-1.793,1.794
		c0,0.99,0.803,1.793,1.793,1.793C287.733-125.557,288.537-126.36,288.537-127.35z"/>
	<path fill="#232323" d="M307.893-127.35c0,4.109-0.932,3.921-5.043,3.921c-4.109,0-5.043,0.188-5.043-3.921
		c0-4.11,0.934-3.922,5.043-3.922C306.961-131.272,307.893-131.46,307.893-127.35z M304.454-127.489l-2.312-1.433
		c-0.169-0.111-0.307-0.03-0.307,0.18v2.782c0,0.21,0.138,0.291,0.307,0.181l2.312-1.434c0,0,0.082-0.057,0.082-0.138
		S304.454-127.489,304.454-127.489z"/>
</g>
</svg>
