<?xml version="1.0" encoding="utf-8"?>
<!-- Generator: Adobe Illustrator 17.0.0, SVG Export Plug-In . SVG Version: 6.00 Build 0)  -->
<!DOCTYPE svg PUBLIC "-//W3C//DTD SVG 1.0//EN" "http://www.w3.org/TR/2001/REC-SVG-20010904/DTD/svg10.dtd" [
	<!ENTITY ns_extend "http://ns.adobe.com/Extensibility/1.0/">
	<!ENTITY ns_ai "http://ns.adobe.com/AdobeIllustrator/10.0/">
	<!ENTITY ns_graphs "http://ns.adobe.com/Graphs/1.0/">
	<!ENTITY ns_vars "http://ns.adobe.com/Variables/1.0/">
	<!ENTITY ns_imrep "http://ns.adobe.com/ImageReplacement/1.0/">
	<!ENTITY ns_sfw "http://ns.adobe.com/SaveForWeb/1.0/">
	<!ENTITY ns_custom "http://ns.adobe.com/GenericCustomNamespace/1.0/">
	<!ENTITY ns_adobe_xpath "http://ns.adobe.com/XPath/1.0/">
]>
<svg version="1.0" id="Capa_1" xmlns:x="&ns_extend;" xmlns:i="&ns_ai;" xmlns:graph="&ns_graphs;"
	 xmlns="http://www.w3.org/2000/svg" xmlns:xlink="http://www.w3.org/1999/xlink" x="0px" y="0px" width="86.207px"
	 height="81.897px" viewBox="0 0 86.207 81.897" enable-background="new 0 0 86.207 81.897" xml:space="preserve">
<metadata>
	<sfw  xmlns="&ns_sfw;">
		<slices></slices>
		<sliceSourceBounds  height="45.245" width="33.409" y="381.34" x="283.374" bottomLeftOrigin="true"></sliceSourceBounds>
	</sfw>
</metadata>
<g>
	<g>
		<path fill="#E67A1E" d="M32.312,26.481c-1.27,0-2.54-0.484-3.507-1.45c-1.428-1.428-2.117-3.668-1.714-5.576
			c0.267-1.263,1.112-2.973,3.626-3.946c0.026-0.013,1.472-0.646,4.581-0.646h16.767c3.109,0,4.555,0.633,4.615,0.66
			c2.48,0.959,3.326,2.668,3.592,3.931c0.402,1.907-0.286,4.148-1.714,5.576c-1.933,1.934-5.079,1.934-7.013,0
			c-1.601-1.601-1.601-4.206,0-5.808c1.335-1.335,3.508-1.335,4.844,0c1.122,1.123,1.122,2.949,0,4.072
			c-0.273,0.273-0.714,0.272-0.987,0c-0.273-0.273-0.273-0.714,0-0.987c0.578-0.579,0.578-1.52,0-2.099
			c-0.791-0.791-2.079-0.791-2.871,0c-1.057,1.057-1.057,2.778,0,3.835c1.39,1.389,3.65,1.389,5.04,0
			c1.091-1.091,1.64-2.859,1.335-4.301c-0.28-1.327-1.236-2.341-2.764-2.933c-0.042-0.018-1.31-0.552-4.077-0.552H35.298
			c-2.767,0-4.036,0.534-4.048,0.54c-1.558,0.604-2.514,1.618-2.794,2.945c-0.304,1.442,0.245,3.21,1.335,4.301
			c1.389,1.389,3.651,1.39,5.04,0c1.057-1.057,1.057-2.777,0-3.835c-0.791-0.791-2.079-0.791-2.871,0
			c-0.579,0.579-0.579,1.52,0,2.099c0.273,0.272,0.273,0.714,0,0.987c-0.273,0.273-0.714,0.273-0.987,0
			c-0.544-0.544-0.843-1.267-0.843-2.036c0-0.769,0.3-1.492,0.843-2.036c1.335-1.335,3.508-1.335,4.844,0
			c1.601,1.601,1.601,4.207,0,5.808C34.852,25.998,33.582,26.481,32.312,26.481z"/>
		<path fill="#E67A1E" d="M51.159,21.689H36.13c-0.385,0-0.698-0.312-0.698-0.698s0.312-0.698,0.698-0.698h15.029
			c0.385,0,0.698,0.312,0.698,0.698S51.544,21.689,51.159,21.689z"/>
		<path fill="#E67A1E" d="M33.444,49.96c-0.385,0-0.698-0.312-0.698-0.698v-23.63c0-0.385,0.312-0.698,0.698-0.698
			c0.385,0,0.698,0.312,0.698,0.698v23.63C34.142,49.648,33.83,49.96,33.444,49.96z"/>
		<path fill="#E67A1E" d="M38.671,49.96c-0.385,0-0.698-0.312-0.698-0.698V28.164c0-0.385,0.312-0.698,0.698-0.698
			c0.385,0,0.698,0.312,0.698,0.698v21.099C39.369,49.648,39.057,49.96,38.671,49.96z"/>
		<path fill="#E67A1E" d="M43.898,49.96c-0.385,0-0.698-0.312-0.698-0.698v-23.63c0-0.385,0.312-0.698,0.698-0.698
			s0.698,0.312,0.698,0.698v23.63C44.596,49.648,44.284,49.96,43.898,49.96z"/>
		<path fill="#E67A1E" d="M49.126,49.96c-0.385,0-0.698-0.312-0.698-0.698V28.164c0-0.385,0.313-0.698,0.698-0.698
			c0.385,0,0.698,0.312,0.698,0.698v21.099C49.823,49.648,49.511,49.96,49.126,49.96z"/>
		<path fill="#E67A1E" d="M53.815,49.96c-0.385,0-0.698-0.312-0.698-0.698v-23.63c0-0.385,0.313-0.698,0.698-0.698
			s0.698,0.312,0.698,0.698v23.63C54.513,49.648,54.2,49.96,53.815,49.96z"/>
	</g>
	<path fill="#E67A1E" d="M55.908,53.818H31.455c-0.385,0-0.698-0.312-0.698-0.698v-3.858c0-0.385,0.312-0.698,0.698-0.698h24.452
		c0.385,0,0.698,0.312,0.698,0.698v3.858C56.606,53.506,56.293,53.818,55.908,53.818z M32.153,52.423H55.21V49.96H32.153V52.423z"/>
	<path fill="#E67A1E" d="M58.546,60.109H28.817c-0.385,0-0.698-0.312-0.698-0.698v-6.291c0-0.385,0.312-0.698,0.698-0.698h29.729
		c0.385,0,0.698,0.312,0.698,0.698v6.291C59.244,59.797,58.931,60.109,58.546,60.109z M29.515,58.714h28.333v-4.895H29.515V58.714z"
		/>
</g>
</svg>
