<?xml version="1.0" encoding="utf-8"?>
<!-- Generator: Adobe Illustrator 17.0.0, SVG Export Plug-In . SVG Version: 6.00 Build 0)  -->
<!DOCTYPE svg PUBLIC "-//W3C//DTD SVG 1.0//EN" "http://www.w3.org/TR/2001/REC-SVG-20010904/DTD/svg10.dtd" [
	<!ENTITY ns_extend "http://ns.adobe.com/Extensibility/1.0/">
	<!ENTITY ns_ai "http://ns.adobe.com/AdobeIllustrator/10.0/">
	<!ENTITY ns_graphs "http://ns.adobe.com/Graphs/1.0/">
	<!ENTITY ns_vars "http://ns.adobe.com/Variables/1.0/">
	<!ENTITY ns_imrep "http://ns.adobe.com/ImageReplacement/1.0/">
	<!ENTITY ns_sfw "http://ns.adobe.com/SaveForWeb/1.0/">
	<!ENTITY ns_custom "http://ns.adobe.com/GenericCustomNamespace/1.0/">
	<!ENTITY ns_adobe_xpath "http://ns.adobe.com/XPath/1.0/">
]>
<svg version="1.0" id="Capa_1" xmlns:x="&ns_extend;" xmlns:i="&ns_ai;" xmlns:graph="&ns_graphs;"
	 xmlns="http://www.w3.org/2000/svg" xmlns:xlink="http://www.w3.org/1999/xlink" x="0px" y="0px" width="86.207px"
	 height="81.897px" viewBox="0 0 86.207 81.897" enable-background="new 0 0 86.207 81.897" xml:space="preserve">
<metadata>
	<sfw  xmlns="&ns_sfw;">
		<slices></slices>
		<sliceSourceBounds  height="53.806" width="1020.332" x="-301.884" y="-426.42" bottomLeftOrigin="true"></sliceSourceBounds>
	</sfw>
</metadata>
<g>
	<g>
		<path fill="#9179B8" d="M58.113,41.101c-0.216,0-0.431-0.083-0.594-0.249L43.099,26.166L28.952,40.846
			c-0.319,0.332-0.847,0.34-1.178,0.022c-0.331-0.319-0.341-0.847-0.022-1.178l14.741-15.297c0.156-0.162,0.371-0.254,0.596-0.255
			c0.24-0.021,0.441,0.089,0.598,0.249l15.019,15.297c0.322,0.328,0.317,0.855-0.011,1.178
			C58.534,41.022,58.323,41.101,58.113,41.101z"/>
		<path fill="#9179B8" d="M54.706,51.157H41.624c-0.46,0-0.833-0.373-0.833-0.833v-9.494H36.72v9.494
			c0,0.46-0.373,0.833-0.833,0.833h-4.268c-0.46,0-0.833-0.373-0.833-0.833V36.878c0-0.46,0.373-0.833,0.833-0.833
			c0.46,0,0.833,0.373,0.833,0.833v12.613h2.602v-9.494c0-0.46,0.373-0.833,0.833-0.833h5.737c0.46,0,0.833,0.373,0.833,0.833v9.494
			h11.416V36.878c0-0.46,0.373-0.833,0.833-0.833s0.833,0.373,0.833,0.833v13.446C55.539,50.784,55.166,51.157,54.706,51.157z"/>
		<path fill="#9179B8" d="M50.651,46.456h-5.355c-0.46,0-0.833-0.373-0.833-0.833v-5.355c0-0.46,0.373-0.833,0.833-0.833h5.355
			c0.46,0,0.833,0.373,0.833,0.833v5.355C51.484,46.083,51.111,46.456,50.651,46.456z M46.129,44.79h3.689v-3.689h-3.689V44.79z"/>
		<path fill="#9179B8" d="M40.252,62.39c-0.039,0-0.077-0.002-0.116-0.008c-8.281-1.153-15.123-6.93-17.854-15.077
			c-2.736-8.16-0.758-16.906,5.162-22.825c0.325-0.325,0.852-0.325,1.178,0c0.325,0.325,0.325,0.853,0,1.178
			c-5.47,5.469-7.294,13.561-4.76,21.118c2.529,7.543,8.853,12.891,16.505,13.956c0.456,0.063,0.773,0.484,0.71,0.94
			C41.018,62.088,40.661,62.39,40.252,62.39z"/>
		<path fill="#9179B8" d="M28.179,25.804c-0.338,0-0.655-0.207-0.78-0.541c-0.05-0.134-1.217-3.316,0.088-6.026
			c1.306-2.71,4.522-3.779,4.658-3.823c0.425-0.137,0.881,0.083,1.037,0.5c0.05,0.134,1.217,3.316-0.088,6.026
			c-1.306,2.71-4.522,3.779-4.658,3.823C28.351,25.791,28.264,25.804,28.179,25.804z M31.855,17.343
			c-0.871,0.43-2.22,1.277-2.867,2.618c-0.651,1.35-0.472,2.929-0.264,3.874c0.871-0.43,2.222-1.277,2.869-2.619
			C32.239,19.876,32.061,18.293,31.855,17.343z"/>
		<path fill="#9179B8" d="M23.641,30.81c-0.161,0-0.323-0.046-0.466-0.143c-0.118-0.08-2.912-2-3.414-4.966
			c-0.503-2.966,1.502-5.699,1.587-5.814c0.266-0.357,0.765-0.443,1.135-0.192c0.119,0.08,2.911,2,3.414,4.966
			c0.503,2.966-1.501,5.698-1.587,5.813C24.146,30.693,23.896,30.81,23.641,30.81z M22.227,21.629
			c-0.461,0.854-1.073,2.326-0.824,3.794c0.251,1.477,1.31,2.661,2.027,3.313c0.461-0.854,1.074-2.327,0.825-3.796
			C24.005,23.472,22.944,22.284,22.227,21.629z"/>
		<path fill="#9179B8" d="M21.146,40.141c-0.091,0-0.183-0.015-0.273-0.046c-0.136-0.047-3.329-1.183-4.578-3.919
			c-1.249-2.736-0.016-5.893,0.037-6.026c0.165-0.413,0.625-0.624,1.047-0.478c0.136,0.047,3.329,1.183,4.577,3.919
			c1.25,2.737,0.016,5.893-0.036,6.026C21.79,39.941,21.478,40.141,21.146,40.141z M17.63,31.605
			c-0.226,0.944-0.437,2.524,0.181,3.878c0.618,1.354,1.95,2.229,2.812,2.677c0.226-0.945,0.437-2.524-0.181-3.878
			C19.823,32.928,18.492,32.053,17.63,31.605z"/>
		<path fill="#9179B8" d="M22.168,49.844c-1.338,0-3.253-0.25-4.773-1.443c-2.367-1.857-2.721-5.228-2.735-5.37
			c-0.043-0.443,0.27-0.842,0.71-0.906c0.018-0.002,0.451-0.064,1.094-0.064c1.338,0,3.253,0.25,4.773,1.443
			c2.367,1.857,2.721,5.228,2.735,5.37c0.043,0.443-0.27,0.842-0.71,0.906C23.243,49.783,22.811,49.844,22.168,49.844z
			 M16.482,43.728c0.233,0.943,0.77,2.444,1.942,3.363c1.198,0.94,2.842,1.086,3.727,1.088c-0.233-0.942-0.77-2.444-1.942-3.363
			C19.011,43.875,17.367,43.729,16.482,43.728z"/>
		<path fill="#9179B8" d="M23.896,59.032c-0.379,0-0.752-0.035-1.109-0.103c-2.954-0.565-4.815-3.398-4.893-3.518
			c-0.242-0.374-0.146-0.872,0.216-1.13c0.089-0.064,2.228-1.567,4.737-1.567c0.379,0,0.751,0.035,1.108,0.103
			c2.955,0.565,4.816,3.398,4.894,3.518c0.242,0.374,0.146,0.872-0.216,1.131C28.544,57.529,26.405,59.032,23.896,59.032z
			 M19.833,55.196c0.639,0.731,1.805,1.817,3.267,2.097c0.254,0.049,0.522,0.073,0.796,0.073c1.187,0,2.308-0.454,3.015-0.817
			c-0.64-0.731-1.805-1.817-3.267-2.097c-0.254-0.049-0.522-0.073-0.796-0.073C21.662,54.379,20.54,54.833,19.833,55.196z"/>
		<path fill="#9179B8" d="M31.403,66.523c-2.092,0-3.868-0.902-3.942-0.94c-0.396-0.204-0.562-0.683-0.376-1.088
			c0.06-0.13,1.495-3.201,4.338-4.183c0.632-0.219,1.323-0.329,2.054-0.329c2.091,0,3.867,0.902,3.942,0.94
			c0.396,0.204,0.561,0.683,0.376,1.088c-0.06,0.13-1.495,3.201-4.337,4.183C32.825,66.412,32.134,66.523,31.403,66.523z
			 M29.034,64.43c0.594,0.204,1.453,0.427,2.369,0.427c0.545,0,1.053-0.08,1.509-0.238c1.416-0.49,2.41-1.73,2.935-2.543
			c-0.594-0.204-1.454-0.428-2.371-0.428c-0.546,0-1.053,0.08-1.509,0.238C30.56,62.373,29.562,63.615,29.034,64.43z"/>
		<path fill="#9179B8" d="M45.954,62.39c-0.409,0-0.766-0.302-0.824-0.718c-0.063-0.456,0.254-0.877,0.71-0.94
			c7.651-1.065,13.975-6.413,16.505-13.956c2.534-7.557,0.709-15.649-4.76-21.118c-0.325-0.325-0.325-0.852,0-1.178
			c0.325-0.325,0.852-0.325,1.178,0c5.92,5.919,7.897,14.665,5.162,22.825c-2.731,8.146-9.572,13.923-17.854,15.077
			C46.031,62.387,45.993,62.39,45.954,62.39z"/>
		<path fill="#9179B8" d="M58.028,25.804c-0.085,0-0.172-0.013-0.257-0.041c-0.136-0.044-3.352-1.114-4.659-3.823
			c-1.306-2.71-0.139-5.892-0.088-6.026c0.156-0.417,0.613-0.637,1.037-0.5c0.136,0.044,3.352,1.113,4.659,3.823
			c1.306,2.71,0.139,5.892,0.088,6.026C58.683,25.596,58.366,25.804,58.028,25.804z M54.352,17.341
			c-0.206,0.948-0.386,2.534,0.261,3.876c0.646,1.341,1.996,2.187,2.867,2.618c0.206-0.95,0.384-2.532-0.262-3.873
			C56.568,18.611,55.221,17.767,54.352,17.341z"/>
		<path fill="#9179B8" d="M62.566,30.81c-0.255,0-0.505-0.117-0.669-0.335c-0.086-0.115-2.089-2.848-1.587-5.813
			c0.503-2.966,3.296-4.886,3.414-4.966c0.369-0.25,0.869-0.165,1.135,0.192c0.086,0.115,2.089,2.848,1.587,5.814
			c-0.503,2.966-3.295,4.885-3.414,4.966C62.889,30.763,62.727,30.81,62.566,30.81z M63.98,21.629
			c-0.717,0.655-1.779,1.843-2.028,3.31c-0.248,1.467,0.363,2.939,0.824,3.794c0.717-0.655,1.779-1.843,2.028-3.31
			C65.052,23.955,64.442,22.484,63.98,21.629z"/>
		<path fill="#9179B8" d="M65.06,40.141c-0.332,0-0.644-0.2-0.774-0.524c-0.053-0.133-1.286-3.29-0.037-6.026
			c1.249-2.737,4.442-3.872,4.578-3.92c0.42-0.147,0.882,0.065,1.047,0.478c0.053,0.133,1.286,3.29,0.036,6.026
			c-1.249,2.737-4.442,3.872-4.577,3.919C65.243,40.126,65.151,40.141,65.06,40.141z M68.579,31.604
			c-0.861,0.448-2.195,1.323-2.814,2.678c-0.622,1.363-0.41,2.938-0.183,3.879c0.862-0.448,2.195-1.323,2.814-2.678
			C69.019,34.12,68.807,32.545,68.579,31.604z"/>
		<path fill="#9179B8" d="M64.038,49.844L64.038,49.844c-0.643,0-1.075-0.061-1.093-0.064c-0.441-0.063-0.754-0.462-0.711-0.906
			c0.014-0.143,0.369-3.513,2.735-5.37c1.52-1.192,3.435-1.443,4.773-1.443c0.643,0,1.075,0.061,1.094,0.064
			c0.44,0.063,0.754,0.462,0.71,0.906c-0.014,0.143-0.369,3.513-2.735,5.37C67.291,49.593,65.377,49.844,64.038,49.844z
			 M69.728,43.728c-0.884,0.002-2.531,0.147-3.73,1.088c-1.179,0.925-1.714,2.422-1.945,3.363c0.884-0.002,2.531-0.147,3.73-1.088
			C68.963,46.165,69.497,44.668,69.728,43.728z"/>
		<path fill="#9179B8" d="M62.31,59.032L62.31,59.032c-2.509,0-4.647-1.503-4.737-1.567c-0.363-0.258-0.458-0.756-0.216-1.13
			c0.078-0.12,1.938-2.954,4.893-3.518c0.357-0.068,0.729-0.103,1.108-0.103c2.509,0,4.648,1.503,4.737,1.567
			c0.363,0.258,0.458,0.756,0.216,1.13c-0.078,0.12-1.938,2.953-4.893,3.518C63.062,58.997,62.689,59.032,62.31,59.032z
			 M59.293,56.548c0.707,0.363,1.83,0.818,3.017,0.818l0,0c0.274,0,0.542-0.025,0.796-0.073c1.472-0.282,2.634-1.366,3.269-2.096
			c-0.706-0.363-1.829-0.818-3.017-0.818c-0.274,0-0.541,0.025-0.796,0.073C61.091,54.734,59.929,55.818,59.293,56.548z"/>
		<path fill="#9179B8" d="M54.804,66.523L54.804,66.523c-0.732,0-1.422-0.111-2.054-0.329c-2.843-0.983-4.278-4.053-4.338-4.183
			c-0.186-0.405-0.02-0.884,0.376-1.088c0.075-0.038,1.851-0.94,3.942-0.94c0.731,0,1.422,0.111,2.054,0.329
			c2.843,0.983,4.278,4.053,4.338,4.183c0.185,0.405,0.02,0.884-0.376,1.088C58.671,65.621,56.895,66.523,54.804,66.523z
			 M50.361,62.074c0.528,0.815,1.525,2.059,2.934,2.546c0.456,0.158,0.964,0.238,1.509,0.238c0.921,0,1.778-0.222,2.37-0.425
			c-0.528-0.815-1.526-2.059-2.934-2.546c-0.456-0.158-0.964-0.238-1.509-0.238C51.809,61.649,50.952,61.87,50.361,62.074z"/>
	</g>
</g>
</svg>
