<?xml version="1.0" encoding="utf-8"?>
<!-- Generator: Adobe Illustrator 17.0.0, SVG Export Plug-In . SVG Version: 6.00 Build 0)  -->
<!DOCTYPE svg PUBLIC "-//W3C//DTD SVG 1.0//EN" "http://www.w3.org/TR/2001/REC-SVG-20010904/DTD/svg10.dtd" [
	<!ENTITY ns_extend "http://ns.adobe.com/Extensibility/1.0/">
	<!ENTITY ns_ai "http://ns.adobe.com/AdobeIllustrator/10.0/">
	<!ENTITY ns_graphs "http://ns.adobe.com/Graphs/1.0/">
	<!ENTITY ns_vars "http://ns.adobe.com/Variables/1.0/">
	<!ENTITY ns_imrep "http://ns.adobe.com/ImageReplacement/1.0/">
	<!ENTITY ns_sfw "http://ns.adobe.com/SaveForWeb/1.0/">
	<!ENTITY ns_custom "http://ns.adobe.com/GenericCustomNamespace/1.0/">
	<!ENTITY ns_adobe_xpath "http://ns.adobe.com/XPath/1.0/">
]>
<svg version="1.0" id="Capa_1" xmlns:x="&ns_extend;" xmlns:i="&ns_ai;" xmlns:graph="&ns_graphs;"
	 xmlns="http://www.w3.org/2000/svg" xmlns:xlink="http://www.w3.org/1999/xlink" x="0px" y="0px" width="81.034px"
	 height="81.897px" viewBox="0 0 81.034 81.897" enable-background="new 0 0 81.034 81.897" xml:space="preserve">
<metadata>
	<sfw  xmlns="&ns_sfw;">
		<slices></slices>
		<sliceSourceBounds  height="53.806" width="1020.332" x="-301.884" y="-426.42" bottomLeftOrigin="true"></sliceSourceBounds>
	</sfw>
</metadata>
<g>
	<g>
		<path fill="#DF6668" d="M30.554,41.052c-4.38,0-7.943-3.563-7.943-7.943s3.563-7.943,7.943-7.943s7.943,3.563,7.943,7.943
			S34.934,41.052,30.554,41.052z M30.554,26.227c-3.795,0-6.882,3.087-6.882,6.882s3.087,6.882,6.882,6.882s6.882-3.087,6.882-6.882
			S34.349,26.227,30.554,26.227z"/>
		<path fill="#DF6668" d="M30.554,41.552c-4.655,0-8.443-3.788-8.443-8.443s3.788-8.443,8.443-8.443s8.443,3.788,8.443,8.443
			S35.209,41.552,30.554,41.552z M30.554,25.665c-4.104,0-7.443,3.339-7.443,7.443s3.339,7.443,7.443,7.443s7.443-3.339,7.443-7.443
			S34.659,25.665,30.554,25.665z M30.554,40.49c-4.07,0-7.382-3.312-7.382-7.382s3.312-7.382,7.382-7.382s7.382,3.312,7.382,7.382
			S34.624,40.49,30.554,40.49z M30.554,26.727c-3.519,0-6.382,2.863-6.382,6.382s2.863,6.382,6.382,6.382s6.382-2.863,6.382-6.382
			S34.073,26.727,30.554,26.727z"/>
	</g>
	<g>
		<path fill="#DF6668" d="M20.353,57.56c-0.293,0-0.531-0.238-0.531-0.531v-8.803c0-0.206,0.05-5.071,4.368-6.749
			c3.24-1.259,6.273-1.067,6.401-1.058c0.292,0.02,0.512,0.273,0.493,0.566c-0.02,0.292-0.266,0.513-0.565,0.493
			c-0.029-0.002-2.933-0.181-5.944,0.989c-3.633,1.412-3.69,5.584-3.691,5.761v8.802C20.884,57.323,20.646,57.56,20.353,57.56z"/>
		<path fill="#DF6668" d="M20.353,58.061c-0.568,0-1.03-0.463-1.03-1.031v-8.802c0-0.221,0.054-5.415,4.688-7.215
			c2.479-0.964,4.822-1.108,5.998-1.108c0.364,0,0.584,0.015,0.617,0.017c0.565,0.04,0.995,0.532,0.957,1.098
			c-0.037,0.548-0.478,0.961-1.026,0.961c-0.098-0.004-0.253-0.012-0.508-0.012c-0.845,0-3.051,0.095-5.292,0.966
			c-3.334,1.296-3.372,5.131-3.372,5.294v8.802C21.384,57.598,20.921,58.061,20.353,58.061z M30.008,40.904
			c-1.106,0-3.31,0.136-5.636,1.04c-4.004,1.556-4.05,6.091-4.05,6.283l0.03,8.833c0.018,0,0.031-0.014,0.031-0.031v-8.802
			c0-0.19,0.046-4.686,4.01-6.226c2.398-0.934,4.754-1.034,5.654-1.034c0.285,0,0.459,0.01,0.491,0.011
			C30.528,40.917,30.331,40.904,30.008,40.904z"/>
	</g>
	<g>
		<path fill="#DF6668" d="M40.756,57.56c-0.293,0-0.531-0.238-0.531-0.531v-8.803c-0.001-0.176-0.057-4.347-3.691-5.76
			c-3.011-1.17-5.915-0.99-5.944-0.989c-0.298,0.021-0.545-0.201-0.565-0.493c-0.02-0.292,0.201-0.545,0.493-0.566
			c0.128-0.008,3.161-0.201,6.401,1.058c4.318,1.678,4.368,6.543,4.368,6.749v8.803C41.287,57.323,41.049,57.56,40.756,57.56z"/>
		<path fill="#DF6668" d="M40.756,58.061c-0.568,0-1.031-0.463-1.031-1.031v-8.802c0-0.163-0.038-3.998-3.371-5.294
			c-2.243-0.872-4.448-0.966-5.292-0.966c-0.285,0-0.413,0.015-0.444,0.01c-0.605,0-1.054-0.421-1.092-0.957
			c-0.038-0.567,0.392-1.06,0.957-1.1c0.034-0.002,0.254-0.017,0.618-0.017c1.176,0,3.52,0.145,5.999,1.108
			c4.633,1.8,4.687,6.994,4.687,7.215v8.802C41.786,57.598,41.325,58.061,40.756,58.061z M31.062,40.968
			c0.9,0,3.254,0.101,5.654,1.034c3.963,1.54,4.009,6.035,4.009,6.226l0.031,8.833c0.017,0,0.03-0.014,0.03-0.031v-8.802
			c0-0.192-0.046-4.728-4.049-6.283c-2.327-0.904-4.53-1.04-5.637-1.04c-0.323,0-0.52,0.013-0.549,0.015
			C30.564,40.979,30.744,40.967,31.062,40.968z"/>
	</g>
	<g>
		<path fill="#DF6668" d="M48.133,36.76c-3.425,0-6.212-2.787-6.212-6.212c0-3.425,2.787-6.212,6.212-6.212
			c3.425,0,6.212,2.787,6.212,6.212C54.344,33.973,51.558,36.76,48.133,36.76z M48.133,25.397c-2.84,0-5.151,2.311-5.151,5.151
			c0,2.84,2.311,5.151,5.151,5.151c2.84,0,5.15-2.311,5.15-5.151C53.283,27.708,50.972,25.397,48.133,25.397z"/>
		<path fill="#DF6668" d="M48.132,37.26c-3.701,0-6.712-3.011-6.712-6.712s3.011-6.712,6.712-6.712s6.712,3.011,6.712,6.712
			S51.833,37.26,48.132,37.26z M48.132,24.836c-3.149,0-5.712,2.563-5.712,5.712s2.563,5.712,5.712,5.712s5.712-2.563,5.712-5.712
			S51.282,24.836,48.132,24.836z M48.132,36.198c-3.115,0-5.65-2.535-5.65-5.65s2.535-5.65,5.65-5.65s5.65,2.535,5.65,5.65
			S51.247,36.198,48.132,36.198z M48.132,25.897c-2.564,0-4.65,2.086-4.65,4.65s2.086,4.65,4.65,4.65s4.65-2.086,4.65-4.65
			S50.697,25.897,48.132,25.897z"/>
	</g>
	<g>
		<path fill="#DF6668" d="M40.756,42.665c0,0-0.001,0-0.001,0c-0.293-0.001-0.53-0.238-0.53-0.53c0-0.161,0.037-3.964,3.242-5.284
			c2.378-0.98,4.61-0.83,4.704-0.823c0.292,0.021,0.512,0.276,0.491,0.568c-0.021,0.292-0.278,0.512-0.568,0.491
			c-0.036-0.002-2.093-0.131-4.223,0.746c-2.542,1.047-2.584,4.172-2.585,4.304C41.285,42.428,41.048,42.665,40.756,42.665z"/>
		<path fill="#DF6668" d="M40.756,43.165c-0.568,0-1.031-0.462-1.031-1.03c0-0.175,0.04-4.3,3.552-5.746
			c1.844-0.76,3.59-0.873,4.467-0.873c0.273,0,0.439,0.011,0.464,0.013c0.275,0.021,0.525,0.146,0.705,0.355
			c0.18,0.208,0.268,0.475,0.248,0.749c-0.04,0.535-0.49,0.954-1.027,0.954c-0.084-0.003-0.189-0.009-0.364-0.009
			c-0.592,0-2.138,0.07-3.707,0.716c-2.229,0.919-2.274,3.727-2.275,3.846C41.785,42.704,41.323,43.165,40.756,43.165z
			 M47.743,36.516c-0.803,0-2.401,0.104-4.086,0.797c-2.899,1.194-2.933,4.675-2.933,4.822l0.031,0.03
			c0.017,0,0.03-0.014,0.03-0.031c0.001-0.147,0.06-3.596,2.895-4.764c1.735-0.715,3.437-0.792,4.088-0.792
			c0.21,0,0.335,0.008,0.353,0.009C48.114,36.524,47.974,36.516,47.743,36.516z"/>
	</g>
	<g>
		<path fill="#DF6668" d="M55.509,49.412c-0.293,0-0.531-0.238-0.531-0.531v-6.746c-0.001-0.131-0.043-3.256-2.585-4.303
			c-2.15-0.886-4.202-0.747-4.222-0.746c-0.289,0.021-0.547-0.198-0.568-0.491c-0.021-0.292,0.198-0.547,0.491-0.568
			c0.094-0.007,2.326-0.157,4.704,0.823c3.205,1.32,3.242,5.123,3.242,5.284v6.746C56.039,49.175,55.802,49.412,55.509,49.412z"/>
		<path fill="#DF6668" d="M55.509,49.912c-0.568,0-1.031-0.462-1.031-1.03v-6.747c0-0.029-0.026-2.913-2.275-3.841
			c-1.57-0.646-3.104-0.717-3.691-0.717c-0.203,0-0.302,0.009-0.313,0.008c-0.606,0-1.056-0.419-1.095-0.953
			c-0.02-0.274,0.068-0.54,0.248-0.749c0.181-0.208,0.431-0.334,0.706-0.354c0.024-0.002,0.19-0.013,0.464-0.013
			c0.877,0,2.622,0.113,4.466,0.873c3.512,1.446,3.552,5.571,3.552,5.746v6.747C56.539,49.45,56.077,49.912,55.509,49.912z
			 M48.511,36.577c0.803,0,2.399,0.104,4.072,0.793c2.861,1.18,2.895,4.619,2.895,4.765l0.031,6.777c0.017,0,0.03-0.014,0.03-0.03
			v-6.747c0-0.147-0.033-3.628-2.933-4.822c-1.685-0.693-3.282-0.797-4.085-0.797c-0.23,0-0.37,0.009-0.392,0.011
			C48.163,36.586,48.289,36.577,48.511,36.577z"/>
	</g>
</g>
</svg>
