<?xml version="1.0" encoding="utf-8"?>
<!-- Generator: Adobe Illustrator 17.0.0, SVG Export Plug-In . SVG Version: 6.00 Build 0)  -->
<!DOCTYPE svg PUBLIC "-//W3C//DTD SVG 1.0//EN" "http://www.w3.org/TR/2001/REC-SVG-20010904/DTD/svg10.dtd" [
	<!ENTITY ns_extend "http://ns.adobe.com/Extensibility/1.0/">
	<!ENTITY ns_ai "http://ns.adobe.com/AdobeIllustrator/10.0/">
	<!ENTITY ns_graphs "http://ns.adobe.com/Graphs/1.0/">
	<!ENTITY ns_vars "http://ns.adobe.com/Variables/1.0/">
	<!ENTITY ns_imrep "http://ns.adobe.com/ImageReplacement/1.0/">
	<!ENTITY ns_sfw "http://ns.adobe.com/SaveForWeb/1.0/">
	<!ENTITY ns_custom "http://ns.adobe.com/GenericCustomNamespace/1.0/">
	<!ENTITY ns_adobe_xpath "http://ns.adobe.com/XPath/1.0/">
]>
<svg version="1.0" id="Capa_1" xmlns:x="&ns_extend;" xmlns:i="&ns_ai;" xmlns:graph="&ns_graphs;"
	 xmlns="http://www.w3.org/2000/svg" xmlns:xlink="http://www.w3.org/1999/xlink" x="0px" y="0px" width="86.207px"
	 height="81.897px" viewBox="0 0 86.207 81.897" enable-background="new 0 0 86.207 81.897" xml:space="preserve">
<metadata>
	<sfw  xmlns="&ns_sfw;">
		<slices></slices>
		<sliceSourceBounds  height="53.806" width="1020.332" x="-301.884" y="-426.42" bottomLeftOrigin="true"></sliceSourceBounds>
	</sfw>
</metadata>
<g>
	<g>
		<path fill="#B0B885" d="M71.927,57.639H14.279c-0.544,0-0.986-0.441-0.986-0.986v-31.41c0-0.544,0.441-0.986,0.986-0.986h57.648
			c0.544,0,0.986,0.441,0.986,0.986v31.41C72.913,57.198,72.472,57.639,71.927,57.639z M15.265,55.668h55.677V26.229H15.265V55.668z
			"/>
		<path fill="#B0B885" d="M42.837,53.082c-5.096,0-9.242-5.511-9.242-12.284s4.146-12.284,9.242-12.284
			c2.57,0,4.954,1.361,6.714,3.832c0.316,0.443,0.212,1.059-0.231,1.375c-0.444,0.316-1.059,0.212-1.375-0.231
			c-1.38-1.938-3.194-3.004-5.108-3.004c-4.009,0-7.271,4.626-7.271,10.313s3.262,10.313,7.271,10.313
			c1.967,0,3.818-1.122,5.211-3.161c0.307-0.449,0.92-0.566,1.37-0.257c0.449,0.307,0.565,0.921,0.257,1.37
			C47.929,51.617,45.436,53.082,42.837,53.082z"/>
		<path fill="#B0B885" d="M44.577,40.071H29.874c-0.544,0-0.986-0.441-0.986-0.986c0-0.544,0.441-0.986,0.986-0.986h14.703
			c0.544,0,0.986,0.441,0.986,0.986C45.563,39.63,45.121,40.071,44.577,40.071z"/>
		<path fill="#B0B885" d="M42.427,44.121H29.874c-0.544,0-0.986-0.441-0.986-0.986c0-0.544,0.441-0.986,0.986-0.986h12.553
			c0.544,0,0.986,0.441,0.986,0.986C43.413,43.68,42.972,44.121,42.427,44.121z"/>
		<path fill="#B0B885" d="M14.279,38.099c-0.252,0-0.504-0.096-0.697-0.289c-0.385-0.385-0.385-1.009,0-1.394l11.748-11.748
			c0.385-0.385,1.009-0.385,1.394,0c0.385,0.385,0.385,1.009,0,1.394L14.976,37.81C14.784,38.003,14.532,38.099,14.279,38.099z"/>
		<path fill="#B0B885" d="M26.027,57.639c-0.252,0-0.504-0.096-0.697-0.289L13.582,45.602c-0.385-0.385-0.385-1.009,0-1.394
			c0.385-0.385,1.009-0.385,1.394,0l11.748,11.748c0.385,0.385,0.385,1.009,0,1.394C26.532,57.543,26.28,57.639,26.027,57.639z"/>
		<path fill="#B0B885" d="M60.179,57.639c-0.252,0-0.504-0.096-0.697-0.289c-0.385-0.385-0.385-1.009,0-1.394l11.748-11.748
			c0.385-0.385,1.009-0.385,1.394,0c0.385,0.385,0.385,1.009,0,1.394L60.876,57.35C60.684,57.543,60.432,57.639,60.179,57.639z"/>
		<path fill="#B0B885" d="M71.927,38.099c-0.252,0-0.504-0.096-0.697-0.289L59.482,26.062c-0.385-0.385-0.385-1.009,0-1.394
			c0.385-0.385,1.009-0.385,1.394,0l11.748,11.748c0.385,0.385,0.385,1.009,0,1.394C72.432,38.003,72.18,38.099,71.927,38.099z"/>
	</g>
</g>
</svg>
