<?xml version="1.0" encoding="utf-8"?>
<!-- Generator: Adobe Illustrator 17.0.0, SVG Export Plug-In . SVG Version: 6.00 Build 0)  -->
<!DOCTYPE svg PUBLIC "-//W3C//DTD SVG 1.0//EN" "http://www.w3.org/TR/2001/REC-SVG-20010904/DTD/svg10.dtd" [
	<!ENTITY ns_extend "http://ns.adobe.com/Extensibility/1.0/">
	<!ENTITY ns_ai "http://ns.adobe.com/AdobeIllustrator/10.0/">
	<!ENTITY ns_graphs "http://ns.adobe.com/Graphs/1.0/">
	<!ENTITY ns_vars "http://ns.adobe.com/Variables/1.0/">
	<!ENTITY ns_imrep "http://ns.adobe.com/ImageReplacement/1.0/">
	<!ENTITY ns_sfw "http://ns.adobe.com/SaveForWeb/1.0/">
	<!ENTITY ns_custom "http://ns.adobe.com/GenericCustomNamespace/1.0/">
	<!ENTITY ns_adobe_xpath "http://ns.adobe.com/XPath/1.0/">
]>
<svg version="1.0" id="Capa_1" xmlns:x="&ns_extend;" xmlns:i="&ns_ai;" xmlns:graph="&ns_graphs;"
	 xmlns="http://www.w3.org/2000/svg" xmlns:xlink="http://www.w3.org/1999/xlink" x="0px" y="0px" width="81.034px"
	 height="81.897px" viewBox="0 0 81.034 81.897" enable-background="new 0 0 81.034 81.897" xml:space="preserve">
<metadata>
	<sfw  xmlns="&ns_sfw;">
		<slices></slices>
		<sliceSourceBounds  height="57.575" width="1265.726" x="-301.884" y="-430.188" bottomLeftOrigin="true"></sliceSourceBounds>
	</sfw>
</metadata>
<g>
	<g>
		<path fill="#E67A1E" d="M26.636,27.513c-1.55,0-3.101-0.59-4.281-1.771c-1.743-1.743-2.584-4.479-2.093-6.807
			c0.326-1.542,1.358-3.629,4.427-4.817c0.032-0.016,1.797-0.789,5.593-0.789h20.47c3.796,0,5.561,0.773,5.634,0.806
			c3.028,1.17,4.06,3.258,4.386,4.8c0.491,2.328-0.349,5.064-2.093,6.807c-2.36,2.361-6.201,2.361-8.562,0
			c-1.955-1.955-1.955-5.136,0-7.091c1.63-1.63,4.283-1.63,5.914,0c1.37,1.371,1.37,3.601,0,4.972c-0.333,0.333-0.872,0.332-1.204,0
			c-0.333-0.333-0.333-0.872,0-1.205c0.706-0.706,0.706-1.856,0-2.563c-0.966-0.966-2.539-0.966-3.505,0
			c-1.29,1.291-1.29,3.391,0,4.682c1.697,1.696,4.456,1.696,6.153,0c1.331-1.331,2.002-3.491,1.63-5.251
			c-0.342-1.62-1.509-2.858-3.375-3.58c-0.052-0.022-1.6-0.674-4.978-0.674h-20.47c-3.378,0-4.927,0.652-4.942,0.659
			c-1.902,0.737-3.069,1.975-3.411,3.595c-0.372,1.76,0.299,3.919,1.63,5.251c1.696,1.696,4.457,1.697,6.153,0
			c1.29-1.291,1.29-3.391,0-4.682c-0.966-0.966-2.538-0.966-3.505,0c-0.706,0.706-0.706,1.856,0,2.563
			c0.333,0.332,0.333,0.872,0,1.204c-0.333,0.333-0.872,0.333-1.204,0c-0.664-0.664-1.03-1.547-1.03-2.486
			c0-0.939,0.366-1.822,1.03-2.486c1.63-1.63,4.283-1.63,5.914,0c1.955,1.955,1.955,5.136,0,7.091
			C29.737,26.923,28.187,27.513,26.636,27.513z"/>
		<path fill="#E67A1E" d="M49.646,21.663H31.297c-0.471,0-0.852-0.381-0.852-0.852c0-0.471,0.381-0.852,0.852-0.852h18.349
			c0.47,0,0.852,0.381,0.852,0.852C50.498,21.281,50.116,21.663,49.646,21.663z"/>
		<path fill="#E67A1E" d="M28.019,56.177c-0.471,0-0.852-0.381-0.852-0.852v-28.85c0-0.471,0.381-0.852,0.852-0.852
			c0.471,0,0.852,0.381,0.852,0.852v28.85C28.871,55.796,28.489,56.177,28.019,56.177z"/>
		<path fill="#E67A1E" d="M34.4,56.177c-0.471,0-0.852-0.381-0.852-0.852V29.567c0-0.471,0.381-0.852,0.852-0.852
			c0.47,0,0.852,0.381,0.852,0.852v25.759C35.252,55.796,34.871,56.177,34.4,56.177z"/>
		<path fill="#E67A1E" d="M40.782,56.177c-0.47,0-0.852-0.381-0.852-0.852v-28.85c0-0.471,0.382-0.852,0.852-0.852
			c0.47,0,0.852,0.381,0.852,0.852v28.85C41.634,55.796,41.252,56.177,40.782,56.177z"/>
		<path fill="#E67A1E" d="M47.163,56.177c-0.47,0-0.852-0.381-0.852-0.852V29.567c0-0.471,0.382-0.852,0.852-0.852
			c0.47,0,0.852,0.381,0.852,0.852v25.759C48.015,55.796,47.634,56.177,47.163,56.177z"/>
		<path fill="#E67A1E" d="M52.889,56.177c-0.47,0-0.852-0.381-0.852-0.852v-28.85c0-0.471,0.382-0.852,0.852-0.852
			c0.47,0,0.852,0.381,0.852,0.852v28.85C53.741,55.796,53.359,56.177,52.889,56.177z"/>
	</g>
	<path fill="#E67A1E" d="M55.444,60.887H25.591c-0.471,0-0.852-0.381-0.852-0.852v-4.71c0-0.471,0.381-0.852,0.852-0.852h29.853
		c0.47,0,0.852,0.381,0.852,0.852v4.71C56.295,60.506,55.914,60.887,55.444,60.887z M26.442,59.184h28.149v-3.007H26.442V59.184z"/>
	<path fill="#E67A1E" d="M58.664,68.567H22.37c-0.471,0-0.852-0.381-0.852-0.852v-7.68c0-0.471,0.381-0.852,0.852-0.852h36.294
		c0.47,0,0.852,0.381,0.852,0.852v7.68C59.516,68.186,59.135,68.567,58.664,68.567z M23.222,66.864h34.591v-5.976H23.222V66.864z"/>
</g>
</svg>
