<?xml version="1.0" encoding="utf-8"?>
<!-- Generator: Adobe Illustrator 17.0.0, SVG Export Plug-In . SVG Version: 6.00 Build 0)  -->
<!DOCTYPE svg PUBLIC "-//W3C//DTD SVG 1.0//EN" "http://www.w3.org/TR/2001/REC-SVG-20010904/DTD/svg10.dtd" [
	<!ENTITY ns_extend "http://ns.adobe.com/Extensibility/1.0/">
	<!ENTITY ns_ai "http://ns.adobe.com/AdobeIllustrator/10.0/">
	<!ENTITY ns_graphs "http://ns.adobe.com/Graphs/1.0/">
	<!ENTITY ns_vars "http://ns.adobe.com/Variables/1.0/">
	<!ENTITY ns_imrep "http://ns.adobe.com/ImageReplacement/1.0/">
	<!ENTITY ns_sfw "http://ns.adobe.com/SaveForWeb/1.0/">
	<!ENTITY ns_custom "http://ns.adobe.com/GenericCustomNamespace/1.0/">
	<!ENTITY ns_adobe_xpath "http://ns.adobe.com/XPath/1.0/">
]>
<svg version="1.0" id="Capa_1" xmlns:x="&ns_extend;" xmlns:i="&ns_ai;" xmlns:graph="&ns_graphs;"
	 xmlns="http://www.w3.org/2000/svg" xmlns:xlink="http://www.w3.org/1999/xlink" x="0px" y="0px" width="86.207px"
	 height="81.897px" viewBox="0 0 86.207 81.897" enable-background="new 0 0 86.207 81.897" xml:space="preserve">
<metadata>
	<sfw  xmlns="&ns_sfw;">
		<slices></slices>
		<sliceSourceBounds  height="53.806" width="1020.332" x="-301.884" y="-426.42" bottomLeftOrigin="true"></sliceSourceBounds>
	</sfw>
</metadata>
<g>
	<g>
		<path fill="#6CA6B3" d="M56.447,67.456H21.12c-2.841,0-5.153-2.312-5.153-5.153c0-0.46,0.373-0.833,0.833-0.833h35.327
			c0.46,0,0.833,0.373,0.833,0.833c0,1.923,1.564,3.487,3.487,3.487s3.487-1.564,3.487-3.487v-42.71
			c0-2.841,2.312-5.153,5.153-5.153c2.841,0,5.153,2.312,5.153,5.153v3.912c0,0.46-0.373,0.833-0.833,0.833h-5.384
			c-0.46,0-0.833-0.373-0.833-0.833s0.373-0.833,0.833-0.833h4.551v-3.079c0-1.923-1.564-3.487-3.487-3.487
			c-1.923,0-3.487,1.564-3.487,3.487v42.71C61.6,65.144,59.289,67.456,56.447,67.456z M17.734,63.136
			c0.374,1.522,1.751,2.654,3.386,2.654h31.537c-0.667-0.724-1.129-1.64-1.295-2.654H17.734z"/>
		<path fill="#6CA6B3" d="M23.809,59.791c-0.46,0-0.833-0.373-0.833-0.833V19.593c0-2.841,2.312-5.153,5.153-5.153h36.958
			c0.46,0,0.833,0.373,0.833,0.833c0,0.46-0.373,0.833-0.833,0.833H28.129c-1.923,0-3.487,1.564-3.487,3.487v39.365
			C24.642,59.419,24.269,59.791,23.809,59.791z"/>
		<path fill="#6CA6B3" d="M48.37,23.736H35.326c-0.46,0-0.833-0.373-0.833-0.833s0.373-0.833,0.833-0.833H48.37
			c0.46,0,0.833,0.373,0.833,0.833S48.83,23.736,48.37,23.736z"/>
		<path fill="#6CA6B3" d="M43.42,45.409H30.376c-0.46,0-0.833-0.373-0.833-0.833s0.373-0.833,0.833-0.833H43.42
			c0.46,0,0.833,0.373,0.833,0.833S43.88,45.409,43.42,45.409z"/>
		<path fill="#6CA6B3" d="M38.871,50.828h-8.495c-0.46,0-0.833-0.373-0.833-0.833c0-0.46,0.373-0.833,0.833-0.833h8.495
			c0.46,0,0.833,0.373,0.833,0.833C39.704,50.455,39.331,50.828,38.871,50.828z"/>
		<path fill="#6CA6B3" d="M53.32,29.155H30.376c-0.46,0-0.833-0.373-0.833-0.833s0.373-0.833,0.833-0.833H53.32
			c0.46,0,0.833,0.373,0.833,0.833S53.78,29.155,53.32,29.155z"/>
		<path fill="#6CA6B3" d="M53.32,34.573H30.376c-0.46,0-0.833-0.373-0.833-0.833s0.373-0.833,0.833-0.833H53.32
			c0.46,0,0.833,0.373,0.833,0.833S53.78,34.573,53.32,34.573z"/>
		<path fill="#6CA6B3" d="M53.32,39.991H30.376c-0.46,0-0.833-0.373-0.833-0.833s0.373-0.833,0.833-0.833H53.32
			c0.46,0,0.833,0.373,0.833,0.833S53.78,39.991,53.32,39.991z"/>
		<path fill="#6CA6B3" d="M50.042,53.236c-2.672,0-4.846-2.174-4.846-4.847s2.174-4.846,4.846-4.846s4.846,2.174,4.846,4.846
			S52.715,53.236,50.042,53.236z M50.042,45.209c-1.754,0-3.181,1.427-3.181,3.181c0,1.754,1.427,3.181,3.181,3.181
			c1.754,0,3.181-1.427,3.181-3.181C53.223,46.636,51.796,45.209,50.042,45.209z"/>
		<circle fill="#6CA6B3" cx="50.042" cy="48.389" r="1.338"/>
		<path fill="#6CA6B3" d="M52.986,59.189c-0.203,0-0.404-0.075-0.56-0.217l-2.388-2.171l-2.434,2.175
			c-0.245,0.219-0.595,0.274-0.895,0.139c-0.3-0.134-0.493-0.432-0.493-0.76v-7.3c0-0.46,0.373-0.833,0.833-0.833
			s0.833,0.373,0.833,0.833v5.438l1.606-1.435c0.318-0.284,0.8-0.283,1.115,0.005l1.55,1.409v-5.357c0-0.46,0.373-0.833,0.833-0.833
			s0.833,0.373,0.833,0.833v7.24c0,0.33-0.194,0.628-0.496,0.762C53.214,59.166,53.1,59.189,52.986,59.189z"/>
	</g>
</g>
</svg>
