<?xml version="1.0" encoding="utf-8"?>
<!-- Generator: Adobe Illustrator 16.0.0, SVG Export Plug-In . SVG Version: 6.00 Build 0)  -->
<!DOCTYPE svg PUBLIC "-//W3C//DTD SVG 1.1//EN" "http://www.w3.org/Graphics/SVG/1.1/DTD/svg11.dtd">
<svg version="1.1" id="Capa_1" xmlns="http://www.w3.org/2000/svg" xmlns:xlink="http://www.w3.org/1999/xlink" x="0px" y="0px"
	 width="259.342px" height="32px" viewBox="0 0 259.342 32" enable-background="new 0 0 259.342 32" xml:space="preserve">
<g>
	<path fill="#232323" d="M174.735,19.382c-0.532,2.8-1.187,5.483-3.116,6.886c-0.599-4.229,0.875-7.408,1.563-10.783
		c-1.166-1.961,0.145-5.909,2.602-4.937c3.021,1.197-2.617,7.293,1.17,8.056c3.953,0.795,5.566-6.863,3.113-9.354
		c-3.543-3.596-10.313-0.082-9.479,5.066c0.203,1.259,1.504,1.641,0.521,3.378c-2.269-0.504-2.943-2.292-2.855-4.677
		c0.145-3.903,3.508-6.637,6.889-7.015c4.271-0.479,8.275,1.567,8.83,5.586c0.625,4.534-1.93,9.447-6.492,9.093
		C176.226,20.584,175.705,19.973,174.735,19.382z"/>
	<path fill="#232323" d="M59.351,9.836c-0.757,0.336-1.567,0.563-2.42,0.665c0.871-0.522,1.539-1.348,1.853-2.331
		c-0.813,0.483-1.715,0.834-2.674,1.022c-0.769-0.818-1.863-1.33-3.074-1.33c-2.324,0-4.211,1.886-4.211,4.212
		c0,0.329,0.037,0.65,0.108,0.958c-3.499-0.175-6.604-1.852-8.679-4.4c-0.364,0.623-0.571,1.347-0.571,2.118
		c0,1.46,0.743,2.75,1.874,3.505c-0.689-0.022-1.34-0.211-1.908-0.525c-0.001,0.017-0.001,0.034-0.001,0.052
		c0,2.04,1.453,3.743,3.38,4.129c-0.354,0.097-0.725,0.146-1.109,0.146c-0.271,0-0.537-0.023-0.793-0.076
		c0.535,1.678,2.091,2.895,3.935,2.928c-1.442,1.129-3.257,1.808-5.229,1.808c-0.34,0-0.676-0.021-1.004-0.063
		c1.862,1.197,4.075,1.896,6.455,1.896c7.748,0,11.981-6.418,11.981-11.98c0-0.182-0.004-0.363-0.013-0.545
		C58.072,11.424,58.787,10.682,59.351,9.836z"/>
	<path fill="#232323" d="M85.959,16.205c0,3.202-2.599,5.8-5.799,5.8c-3.205,0-5.804-2.599-5.804-5.8
		c0-0.383,0.038-0.755,0.108-1.116h-3.901v7.71c0,1.654,1.341,2.998,2.998,2.998h13.19c1.654,0,2.996-1.344,2.996-2.998v-7.71H85.85
		C85.92,15.45,85.959,15.822,85.959,16.205z M86.756,6.609H73.563c-1.657,0-2.998,1.342-2.998,2.998v3.248h4.856
		c1.051-1.483,2.779-2.454,4.738-2.454c1.955,0,3.686,0.971,4.734,2.454h4.855V9.607C89.752,7.952,88.41,6.609,86.756,6.609z
		 M88.222,10.313c0,0.295-0.241,0.536-0.538,0.536H86.08c-0.295,0-0.537-0.241-0.537-0.536V8.707c0-0.294,0.242-0.534,0.537-0.534
		h1.604c0.297,0,0.538,0.24,0.538,0.534V10.313z M83.729,16.205c0-1.973-1.601-3.572-3.569-3.572c-1.974,0-3.568,1.6-3.568,3.572
		c0,1.971,1.597,3.568,3.568,3.568C82.129,19.773,83.729,18.176,83.729,16.205z"/>
	<path fill="#232323" d="M122.08,16.205c0,8.184-1.854,7.809-10.041,7.809S102,24.389,102,16.205c0-8.185,1.854-7.811,10.039-7.811
		C120.226,8.394,122.08,8.02,122.08,16.205z M115.234,15.928l-4.605-2.854c-0.334-0.22-0.61-0.059-0.61,0.36v5.539
		c0,0.418,0.276,0.579,0.61,0.359l4.605-2.854c0,0,0.162-0.114,0.162-0.274S115.234,15.928,115.234,15.928z"/>
	<path fill="#232323" d="M217.168,16.83v7.002h-4.063v-6.533c0-1.641-0.586-2.761-2.058-2.761c-1.121,0-1.788,0.755-2.082,1.485
		c-0.106,0.261-0.139,0.625-0.139,0.991v6.818h-4.06c0,0,0.055-11.064,0-12.211h4.062v1.73c-0.009,0.013-0.019,0.027-0.022,0.04
		h0.022v-0.04c0.539-0.831,1.504-2.018,3.659-2.018C215.166,11.333,217.168,13.079,217.168,16.83 M200.524,5.733
		c-1.39,0-2.297,0.912-2.297,2.11c0,1.172,0.881,2.111,2.244,2.111h0.025c1.416,0,2.297-0.939,2.297-2.111
		C202.769,6.646,201.914,5.733,200.524,5.733 M198.469,23.832h4.062V11.621h-4.062V23.832z"/>
	<path id="f" fill="#232323" d="M17.521,26.214v-9.161h3.076l0.46-3.57h-3.536v-2.28c0-1.034,0.287-1.738,1.77-1.738l1.892-0.001
		V6.271c-0.328-0.044-1.45-0.141-2.755-0.141c-2.727,0-4.592,1.664-4.592,4.719v2.633h-3.084v3.57h3.084v9.161L17.521,26.214
		L17.521,26.214z"/>
	<path fill="#232323" d="M249.347,12.063c-1.15,6.607-7.582,12.201-9.519,13.48c-1.937,1.273-3.699-0.514-4.341-1.866
		c-0.731-1.542-2.93-9.909-3.506-10.601c-0.571-0.693-2.301,0.692-2.301,0.692l-0.836-1.118c0,0,3.504-4.263,6.17-4.796
		c2.827-0.565,2.822,4.422,3.504,7.192c0.656,2.679,1.103,4.211,1.676,4.211c0.572,0,1.673-1.493,2.875-3.784
		c1.203-2.293-0.053-4.317-2.403-2.877C241.606,6.842,250.498,5.458,249.347,12.063z"/>
	<g>
		<path fill="#232323" d="M144.91,17.654c-1.349,0-2.656,0-4,0c0-1.049,0-2.05,0-3.09c0.146-0.008,0.289-0.024,0.435-0.024
			c2.104-0.001,4.204,0.007,6.307-0.01c0.354-0.003,0.482,0.086,0.531,0.449c0.44,3.332-0.783,6.664-3.939,8.071
			c-4.926,2.197-10.199-0.922-10.912-5.877c-0.592-4.129,2.24-8.001,6.381-8.638c2.182-0.335,4.166,0.142,5.91,1.527
			c0.137,0.11,0.266,0.231,0.355,0.311c-0.75,0.751-1.479,1.483-2.234,2.24c-0.805-0.737-1.836-1.105-2.996-1.059
			c-1.03,0.041-1.941,0.418-2.725,1.096c-1.529,1.325-1.992,3.592-1.105,5.42c0.875,1.803,2.848,2.856,4.707,2.516
			C143.49,20.246,144.772,19.127,144.91,17.654z"/>
		<path fill="#232323" d="M152.688,16.705c-0.771,0-1.498-0.02-2.223,0.008c-0.357,0.014-0.48-0.105-0.457-0.457
			c0.023-0.371,0.025-0.746,0-1.116c-0.025-0.345,0.115-0.434,0.439-0.425c0.727,0.02,1.451,0.006,2.234,0.006
			c0-0.764,0.021-1.489-0.008-2.213c-0.015-0.38,0.12-0.498,0.483-0.472c0.387,0.027,0.774,0.019,1.161,0.003
			c0.277-0.011,0.357,0.103,0.354,0.369c-0.014,0.756-0.006,1.512-0.006,2.316c0.781,0,1.521,0.016,2.261-0.007
			c0.342-0.011,0.446,0.108,0.422,0.438c-0.023,0.34-0.027,0.686,0,1.026c0.033,0.396-0.08,0.558-0.513,0.535
			c-0.696-0.036-1.397-0.011-2.17-0.011c0,0.711,0,1.404,0,2.1c-0.002,0.568-0.002,0.568-0.592,0.57
			c-0.326,0.002-0.654-0.014-0.981,0.007c-0.306,0.019-0.423-0.089-0.414-0.405C152.703,18.246,152.688,17.516,152.688,16.705z"/>
	</g>
</g>
</svg>
