<?xml version="1.0" encoding="utf-8"?>
<!-- Generator: Adobe Illustrator 16.0.0, SVG Export Plug-In . SVG Version: 6.00 Build 0)  -->
<!DOCTYPE svg PUBLIC "-//W3C//DTD SVG 1.1//EN" "http://www.w3.org/Graphics/SVG/1.1/DTD/svg11.dtd">
<svg version="1.1" id="Capa_1" xmlns="http://www.w3.org/2000/svg" xmlns:xlink="http://www.w3.org/1999/xlink" x="0px" y="0px"
	 width="192px" height="24px" viewBox="0 0 192 24" enable-background="new 0 0 192 24" xml:space="preserve">
<g>
	<path fill="#232323" d="M131.592,14.632c-0.4,2.101-0.895,4.111-2.339,5.163c-0.448-3.171,0.655-5.552,1.171-8.083
		c-0.871-1.47,0.109-4.43,1.95-3.701c2.267,0.898-1.962,5.466,0.88,6.042c2.963,0.596,4.172-5.145,2.333-7.016
		c-2.654-2.696-7.732-0.062-7.107,3.799c0.15,0.946,1.127,1.23,0.39,2.531c-1.699-0.376-2.206-1.716-2.138-3.505
		c0.108-2.927,2.632-4.976,5.168-5.258c3.199-0.358,6.203,1.174,6.62,4.188c0.469,3.399-1.451,7.084-4.869,6.818
		C132.706,15.532,132.318,15.075,131.592,14.632z"/>
	<path fill="#232323" d="M45.079,7.477c-0.568,0.251-1.176,0.421-1.815,0.499c0.653-0.393,1.153-1.011,1.389-1.749
		c-0.61,0.361-1.286,0.625-2.004,0.767c-0.578-0.613-1.397-0.997-2.306-0.997c-1.743,0-3.156,1.414-3.156,3.158
		c0,0.246,0.027,0.486,0.081,0.718c-2.625-0.132-4.952-1.388-6.507-3.3c-0.274,0.467-0.429,1.01-0.429,1.588
		c0,1.094,0.557,2.061,1.406,2.628c-0.517-0.018-1.005-0.157-1.431-0.396c0,0.015,0,0.025,0,0.04c0,1.53,1.088,2.807,2.533,3.098
		c-0.266,0.071-0.544,0.109-0.832,0.109c-0.203,0-0.402-0.019-0.595-0.061c0.401,1.26,1.567,2.173,2.95,2.197
		c-1.082,0.848-2.442,1.356-3.92,1.356c-0.255,0-0.506-0.016-0.752-0.05c1.395,0.9,3.054,1.424,4.839,1.424
		c5.809,0,8.983-4.813,8.983-8.983c0-0.137-0.003-0.272-0.009-0.408C44.119,8.665,44.655,8.11,45.079,7.477z"/>
	<path fill="#232323" d="M65.028,12.249c0,2.402-1.948,4.35-4.347,4.35c-2.403,0-4.353-1.948-4.353-4.35
		c0-0.286,0.029-0.566,0.081-0.835h-2.925v5.782c0,1.239,1.005,2.247,2.247,2.247h9.892c1.239,0,2.245-1.008,2.245-2.247v-5.782
		h-2.922C64.999,11.685,65.028,11.962,65.028,12.249z M65.625,5.055h-9.892c-1.242,0-2.248,1.007-2.248,2.25v2.433h3.641
		C57.915,8.625,59.21,7.9,60.679,7.9c1.466,0,2.764,0.729,3.548,1.838h3.64V7.305C67.872,6.062,66.866,5.055,65.625,5.055z
		 M66.726,7.833c0,0.221-0.181,0.401-0.403,0.401h-1.203c-0.222,0-0.401-0.183-0.401-0.401V6.63c0-0.222,0.182-0.401,0.401-0.401
		h1.203c0.224,0,0.403,0.18,0.403,0.401V7.833z M63.357,12.249c0-1.479-1.201-2.679-2.676-2.679c-1.48,0-2.677,1.201-2.677,2.679
		c0,1.478,1.198,2.677,2.677,2.677C62.157,14.926,63.357,13.727,63.357,12.249z"/>
	<path fill="#232323" d="M92.11,12.249c0,6.137-1.391,5.855-7.529,5.855c-6.14,0-7.527,0.28-7.527-5.855
		c0-6.137,1.389-5.854,7.527-5.854S92.11,6.113,92.11,12.249z M86.978,12.041l-3.454-2.138c-0.249-0.166-0.457-0.044-0.457,0.271
		v4.152c0,0.315,0.208,0.435,0.457,0.27l3.454-2.138c0,0,0.122-0.085,0.122-0.206C87.1,12.129,86.978,12.041,86.978,12.041z"/>
	<path fill="#232323" d="M163.405,12.72v5.249h-3.048v-4.897c0-1.23-0.439-2.071-1.542-2.071c-0.841,0-1.339,0.567-1.561,1.115
		c-0.079,0.194-0.105,0.469-0.105,0.741v5.112h-3.043c0,0,0.041-8.294,0-9.155h3.045v1.297c-0.007,0.009-0.015,0.021-0.017,0.029
		h0.017v-0.029c0.402-0.623,1.126-1.513,2.743-1.513C161.905,8.598,163.405,9.907,163.405,12.72 M150.928,4.398
		c-1.043,0-1.723,0.685-1.723,1.583c0,0.878,0.659,1.583,1.681,1.583h0.02c1.061,0,1.724-0.705,1.724-1.583
		C152.608,5.083,151.967,4.398,150.928,4.398 M149.386,17.969h3.044V8.813h-3.044V17.969z"/>
	<path id="f" fill="#232323" d="M13.717,19.756v-6.87h2.306l0.345-2.675h-2.651V8.5c0-0.775,0.215-1.303,1.327-1.303l1.418-0.001
		V4.802c-0.245-0.031-1.086-0.105-2.064-0.105c-2.044,0-3.443,1.247-3.443,3.539v1.974H8.642v2.676h2.312v6.87H13.717L13.717,19.756
		z"/>
	<path fill="#232323" d="M187.531,9.145c-0.863,4.954-5.684,9.147-7.136,10.106c-1.454,0.953-2.774-0.386-3.256-1.398
		c-0.548-1.158-2.195-7.43-2.631-7.95c-0.427-0.521-1.723,0.521-1.723,0.521l-0.627-0.838c0,0,2.627-3.196,4.625-3.598
		c2.118-0.423,2.114,3.316,2.628,5.392c0.491,2.008,0.827,3.158,1.257,3.158c0.429,0,1.252-1.119,2.154-2.837
		c0.903-1.719-0.038-3.237-1.803-2.158C181.729,5.231,188.395,4.192,187.531,9.145z"/>
	<g>
		<path fill="#232323" d="M109.229,13.337c-1.011,0-1.992,0-2.999,0c0-0.784,0-1.537,0-2.315c0.108-0.006,0.216-0.02,0.327-0.02
			c1.576-0.001,3.149,0.005,4.727-0.008c0.267-0.002,0.361,0.063,0.399,0.337c0.33,2.497-0.586,4.997-2.953,6.05
			c-3.693,1.647-7.646-0.69-8.182-4.406c-0.444-3.097,1.68-6,4.787-6.476c1.636-0.251,3.121,0.105,4.431,1.145
			c0.103,0.082,0.199,0.173,0.266,0.232c-0.563,0.564-1.11,1.113-1.674,1.679c-0.604-0.553-1.376-0.829-2.245-0.794
			c-0.773,0.029-1.458,0.315-2.048,0.824c-1.143,0.992-1.491,2.692-0.825,4.065c0.653,1.351,2.137,2.139,3.527,1.885
			C108.162,15.281,109.125,14.44,109.229,13.337z"/>
		<path fill="#232323" d="M115.063,12.625c-0.579,0-1.123-0.017-1.667,0.006c-0.27,0.011-0.358-0.079-0.345-0.343
			c0.017-0.277,0.021-0.56,0-0.836c-0.018-0.259,0.085-0.326,0.328-0.319c0.546,0.018,1.088,0.006,1.675,0.006
			c0-0.572,0.017-1.117-0.006-1.66c-0.013-0.285,0.089-0.373,0.358-0.354c0.291,0.021,0.582,0.015,0.873,0.002
			c0.204-0.008,0.267,0.077,0.265,0.276c-0.01,0.568-0.004,1.133-0.004,1.737c0.586,0,1.14,0.012,1.695-0.007
			c0.257-0.009,0.332,0.081,0.317,0.329c-0.019,0.255-0.021,0.514,0,0.77c0.021,0.297-0.063,0.418-0.388,0.4
			c-0.521-0.026-1.045-0.008-1.625-0.008c0,0.532,0,1.052,0,1.574c-0.002,0.426-0.002,0.426-0.443,0.428
			c-0.245,0.002-0.49-0.01-0.735,0.005c-0.232,0.017-0.317-0.064-0.312-0.304C115.072,13.781,115.063,13.233,115.063,12.625z"/>
	</g>
</g>
</svg>
