<?xml version="1.0" encoding="utf-8"?>
<!-- Generator: Adobe Illustrator 16.0.0, SVG Export Plug-In . SVG Version: 6.00 Build 0)  -->
<!DOCTYPE svg PUBLIC "-//W3C//DTD SVG 1.1//EN" "http://www.w3.org/Graphics/SVG/1.1/DTD/svg11.dtd">
<svg version="1.1" id="Capa_1" xmlns="http://www.w3.org/2000/svg" xmlns:xlink="http://www.w3.org/1999/xlink" x="0px" y="0px"
	 width="127.879px" height="16px" viewBox="0 0 127.879 16" enable-background="new 0 0 127.879 16" xml:space="preserve">
<g>
	<path fill="#232323" d="M87.084,9.975c-0.269,1.401-0.594,2.746-1.563,3.448c-0.299-2.12,0.438-3.711,0.783-5.402
		c-0.583-0.982,0.072-2.96,1.303-2.473c1.516,0.599-1.311,3.653,0.587,4.035c1.979,0.397,2.788-3.438,1.56-4.687
		c-1.775-1.801-5.166-0.041-4.748,2.539c0.102,0.63,0.754,0.822,0.262,1.692c-1.139-0.252-1.477-1.148-1.432-2.343
		c0.072-1.954,1.758-3.324,3.451-3.514c2.139-0.24,4.146,0.785,4.422,2.798c0.313,2.272-0.967,4.732-3.252,4.556
		C87.831,10.576,87.57,10.27,87.084,9.975z"/>
	<path fill="#232323" d="M29.28,5.191c-0.38,0.169-0.785,0.282-1.212,0.333c0.437-0.261,0.771-0.675,0.928-1.168
		c-0.407,0.242-0.858,0.417-1.34,0.512c-0.385-0.41-0.933-0.667-1.54-0.667c-1.165,0-2.109,0.945-2.109,2.111
		c0,0.164,0.02,0.325,0.055,0.479c-1.754-0.087-3.308-0.928-4.347-2.204c-0.183,0.312-0.286,0.675-0.286,1.061
		c0,0.731,0.371,1.377,0.938,1.756c-0.345-0.011-0.67-0.105-0.956-0.263c0,0.008,0,0.018,0,0.026c0,1.022,0.728,1.875,1.693,2.067
		c-0.177,0.052-0.364,0.076-0.556,0.076c-0.137,0-0.27-0.013-0.398-0.039c0.269,0.84,1.048,1.449,1.972,1.467
		c-0.723,0.564-1.631,0.904-2.618,0.904c-0.172,0-0.34-0.011-0.504-0.031c0.933,0.599,2.042,0.949,3.232,0.949
		c3.883,0,6.004-3.215,6.004-6.001c0-0.091-0.002-0.181-0.006-0.272C28.641,5.987,28.998,5.615,29.28,5.191z"/>
	<path fill="#232323" d="M42.61,8.382c0,1.604-1.301,2.906-2.906,2.906c-1.604,0-2.905-1.302-2.905-2.906
		c0-0.191,0.019-0.378,0.054-0.559h-1.954v3.862c0,0.828,0.671,1.5,1.501,1.5h6.608c0.827,0,1.501-0.672,1.501-1.5V7.823h-1.952
		C42.59,8.003,42.61,8.19,42.61,8.382z M43.01,3.575H36.4c-0.829,0-1.5,0.672-1.5,1.502v1.627h2.433
		c0.526-0.744,1.392-1.23,2.372-1.23c0.981,0,1.848,0.486,2.373,1.23h2.433V5.077C44.511,4.248,43.837,3.575,43.01,3.575z
		 M43.743,5.43c0,0.148-0.121,0.269-0.27,0.269h-0.802c-0.148,0-0.27-0.121-0.27-0.269V4.626c0-0.148,0.121-0.268,0.27-0.268h0.802
		c0.148,0,0.27,0.12,0.27,0.268V5.43z M41.493,8.382c0-0.988-0.802-1.79-1.789-1.79c-0.988,0-1.786,0.801-1.786,1.79
		c0,0.987,0.799,1.788,1.786,1.788C40.691,10.17,41.493,9.369,41.493,8.382z"/>
	<path fill="#232323" d="M60.704,8.382c0,4.099-0.928,3.912-5.029,3.912c-4.101,0-5.028,0.188-5.028-3.912s0.929-3.913,5.028-3.913
		C59.776,4.469,60.704,4.281,60.704,8.382z M57.277,8.243l-2.309-1.43c-0.167-0.11-0.306-0.03-0.306,0.18v2.774
		c0,0.209,0.139,0.291,0.306,0.181l2.309-1.431c0,0,0.08-0.057,0.08-0.137S57.277,8.243,57.277,8.243z"/>
	<path fill="#232323" d="M108.34,8.695v3.507h-2.034V8.93c0-0.822-0.295-1.384-1.031-1.384c-0.562,0-0.896,0.378-1.043,0.745
		c-0.054,0.13-0.069,0.313-0.069,0.496v3.416h-2.033c0,0,0.027-5.543,0-6.117h2.035v0.867c-0.004,0.007-0.01,0.013-0.012,0.02h0.012
		v-0.02c0.27-0.417,0.752-1.011,1.832-1.011C107.338,5.942,108.34,6.816,108.34,8.695 M100.002,3.136
		c-0.694,0-1.149,0.457-1.149,1.057c0,0.587,0.44,1.057,1.123,1.057h0.015c0.709,0,1.15-0.47,1.15-1.057
		C101.127,3.593,100.7,3.136,100.002,3.136 M98.973,12.203h2.033V6.085h-2.033V12.203z"/>
	<path id="f_1_" fill="#232323" d="M8.327,13.396v-4.59h1.54l0.23-1.789h-1.77V5.876c0-0.519,0.144-0.871,0.886-0.871h0.948v-1.6
		C9.996,3.384,9.434,3.334,8.78,3.334c-1.366,0-2.3,0.834-2.3,2.364v1.319H4.935v1.79H6.48v4.588L8.327,13.396L8.327,13.396z"/>
	<path fill="#232323" d="M124.459,6.307c-0.574,3.31-3.797,6.112-4.768,6.753c-0.97,0.638-1.854-0.258-2.173-0.936
		c-0.368-0.773-1.47-4.964-1.757-5.311c-0.287-0.348-1.152,0.346-1.152,0.346l-0.421-0.56c0,0,1.756-2.135,3.095-2.403
		c1.414-0.282,1.411,2.216,1.752,3.604c0.33,1.342,0.553,2.109,0.84,2.109c0.289,0,0.84-0.748,1.44-1.896
		c0.603-1.149-0.024-2.163-1.204-1.441C120.584,3.691,125.038,2.999,124.459,6.307z"/>
	<g>
		<path fill="#232323" d="M72.144,9.107c-0.677,0-1.332,0-2.006,0c0-0.524,0-1.026,0-1.547c0.075-0.004,0.146-0.013,0.22-0.013
			c1.053,0,2.105,0.004,3.157-0.004c0.177-0.002,0.241,0.043,0.267,0.225c0.221,1.667-0.392,3.337-1.974,4.042
			c-2.468,1.102-5.108-0.461-5.466-2.943c-0.297-2.068,1.123-4.008,3.195-4.327c1.094-0.167,2.088,0.071,2.961,0.765
			c0.068,0.055,0.133,0.116,0.18,0.156c-0.377,0.376-0.742,0.743-1.121,1.122c-0.403-0.369-0.919-0.554-1.5-0.53
			c-0.516,0.021-0.973,0.209-1.365,0.549c-0.768,0.664-0.999,1.799-0.555,2.714c0.439,0.903,1.427,1.432,2.357,1.261
			C71.431,10.406,72.075,9.846,72.144,9.107z"/>
		<path fill="#232323" d="M76.04,8.633c-0.388,0-0.75-0.009-1.113,0.004c-0.18,0.008-0.24-0.052-0.229-0.229
			c0.013-0.186,0.015-0.374,0-0.56c-0.013-0.173,0.058-0.217,0.222-0.212c0.363,0.01,0.728,0.003,1.121,0.003
			c0-0.383,0.008-0.747-0.004-1.108c-0.009-0.19,0.061-0.25,0.24-0.236c0.193,0.013,0.389,0.009,0.584,0.001
			c0.139-0.006,0.178,0.051,0.176,0.185c-0.008,0.378-0.002,0.757-0.002,1.16c0.391,0,0.762,0.008,1.131-0.003
			c0.172-0.006,0.226,0.054,0.211,0.219c-0.012,0.17-0.014,0.344,0,0.514c0.019,0.199-0.039,0.279-0.256,0.27
			c-0.35-0.02-0.699-0.007-1.086-0.007c0,0.356,0,0.703,0,1.052C77.03,9.97,77.03,9.97,76.735,9.971
			c-0.165,0.002-0.329-0.007-0.492,0.004C76.09,9.982,76.034,9.93,76.038,9.77C76.047,9.404,76.04,9.039,76.04,8.633z"/>
	</g>
</g>
</svg>
