<?xml version="1.0" encoding="utf-8"?>
<!-- Generator: Adobe Illustrator 16.0.0, SVG Export Plug-In . SVG Version: 6.00 Build 0)  -->
<!DOCTYPE svg PUBLIC "-//W3C//DTD SVG 1.1//EN" "http://www.w3.org/Graphics/SVG/1.1/DTD/svg11.dtd">
<svg version="1.1" id="Capa_1" xmlns="http://www.w3.org/2000/svg" xmlns:xlink="http://www.w3.org/1999/xlink" x="0px" y="0px"
	 width="192px" height="24px" viewBox="0 0 192 24" enable-background="new 0 0 192 24" xml:space="preserve">
<g>
	<g>
		<path fill="none" stroke="#EEEEEE" stroke-linecap="round" stroke-linejoin="round" stroke-miterlimit="10" d="M11.879,19.512
			V7.436c0,0-0.065-2.435,2.238-2.435c2.303,0,2.303,0,2.303,0"/>
		
			<line fill="none" stroke="#EEEEEE" stroke-linecap="round" stroke-linejoin="round" stroke-miterlimit="10" x1="7.635" y1="10.463" x2="16.453" y2="10.463"/>
	</g>
	<g>
		
			<line fill="none" stroke="#EEEEEE" stroke-linecap="round" stroke-linejoin="round" stroke-miterlimit="10" x1="116.367" y1="9.075" x2="116.367" y2="14.721"/>
		
			<line fill="none" stroke="#EEEEEE" stroke-linecap="round" stroke-linejoin="round" stroke-miterlimit="10" x1="113.623" y1="11.897" x2="119.111" y2="11.897"/>
		<path fill="none" stroke="#EEEEEE" stroke-linecap="round" stroke-linejoin="round" stroke-miterlimit="10" d="M104.529,12.256
			h5.523c0,3.051-2.474,5.523-5.523,5.523c-3.053,0-5.524-2.473-5.524-5.523c0-3.05,2.474-5.524,5.524-5.524
			c1.441,0,2.753,0.552,3.736,1.456"/>
	</g>
	<g>
		<path fill="none" stroke="#EEEEEE" stroke-linecap="round" stroke-linejoin="round" stroke-miterlimit="10" d="M126.652,11.042
			c-0.031-0.223-0.047-0.45-0.047-0.681c0-2.75,2.229-4.979,4.979-4.979s4.979,2.229,4.979,4.979c0,2.75-2.229,4.979-4.979,4.979
			c-0.242,0-0.479-0.018-0.713-0.051"/>
		
			<line fill="none" stroke="#EEEEEE" stroke-linecap="round" stroke-linejoin="round" stroke-miterlimit="10" x1="130.837" y1="9.367" x2="130.837" y2="19.131"/>
	</g>
	<path fill="none" stroke="#EEEEEE" stroke-linecap="round" stroke-linejoin="round" stroke-miterlimit="10" d="M44.576,7.178
		c-0.604,0.269-1.249,0.449-1.929,0.531c0.694-0.416,1.228-1.074,1.476-1.859c-0.647,0.386-1.366,0.666-2.13,0.815
		c-0.613-0.652-1.485-1.059-2.45-1.059c-1.853,0-3.356,1.502-3.356,3.356c0,0.264,0.03,0.519,0.086,0.765
		c-2.789-0.14-5.263-1.477-6.917-3.507C29.064,6.716,28.9,7.293,28.9,7.907c0,1.164,0.591,2.192,1.493,2.794
		c-0.55-0.018-1.068-0.168-1.521-0.419c0,0.014,0,0.027,0,0.042c0,1.625,1.158,2.982,2.694,3.291
		c-0.282,0.076-0.578,0.115-0.884,0.115c-0.217,0-0.429-0.021-0.632-0.063c0.425,1.336,1.666,2.309,3.135,2.333
		c-1.149,0.897-2.597,1.438-4.168,1.438c-0.272,0-0.54-0.018-0.801-0.049c1.484,0.953,3.249,1.512,5.145,1.512
		c6.176,0,9.55-5.114,9.55-9.548c0-0.146-0.002-0.29-0.01-0.435C43.558,8.444,44.128,7.853,44.576,7.178z"/>
	<path fill="none" stroke="#EEEEEE" stroke-linecap="round" stroke-linejoin="round" stroke-miterlimit="10" d="M91.643,12.257
		c0,6.2-1.405,5.917-7.608,5.917c-6.203,0-7.608,0.283-7.608-5.917c0-6.203,1.406-5.918,7.608-5.918
		C90.237,6.338,91.643,6.054,91.643,12.257z M86.455,12.047l-3.488-2.163c-0.254-0.167-0.463-0.044-0.463,0.273v4.196
		c0,0.314,0.208,0.438,0.463,0.271l3.488-2.164c0,0,0.124-0.087,0.124-0.208C86.578,12.134,86.455,12.047,86.455,12.047z"/>
	<path fill="none" stroke="#EEEEEE" stroke-linecap="round" stroke-linejoin="round" stroke-miterlimit="10" d="M172.984,7.734
		c3.44-2.294,2.531,10.716,5.479,10.716c2.436,0,7.531-5.466,7.531-10.251c0-1.026-0.737-2.137-1.84-2.137
		c-1.977,0-2.697,1.862-2.697,1.862"/>
	<g>
		
			<line fill="none" stroke="#EEEEEE" stroke-linecap="round" stroke-linejoin="round" stroke-miterlimit="10" x1="149.871" y1="8.636" x2="149.871" y2="18.156"/>
		
			<line fill="none" stroke="#EEEEEE" stroke-linecap="round" stroke-linejoin="round" stroke-miterlimit="10" x1="153.286" y1="8.636" x2="153.286" y2="18.156"/>
		<path fill="none" stroke="#EEEEEE" stroke-linecap="round" stroke-linejoin="round" stroke-miterlimit="10" d="M162.292,18.156
			v-4.961c0-3.115-2.612-4.271-4.503-4.271s-4.502,1.155-4.502,4.271"/>
		
			<line fill="none" stroke="#EEEEEE" stroke-linecap="round" stroke-linejoin="round" stroke-miterlimit="10" x1="149.852" y1="6.357" x2="149.891" y2="6.357"/>
	</g>
	<g>
		
			<circle fill="none" stroke="#EEEEEE" stroke-linecap="round" stroke-linejoin="round" stroke-miterlimit="10" cx="60.024" cy="12.31" r="3.783"/>
		
			<line fill="none" stroke="#EEEEEE" stroke-linecap="round" stroke-linejoin="round" stroke-miterlimit="10" x1="56.578" y1="10.749" x2="52.899" y2="10.749"/>
		
			<line fill="none" stroke="#EEEEEE" stroke-linecap="round" stroke-linejoin="round" stroke-miterlimit="10" x1="67.177" y1="10.749" x2="63.499" y2="10.749"/>
		<path fill="none" stroke="#EEEEEE" stroke-linecap="round" stroke-linejoin="round" stroke-miterlimit="10" d="M67.154,18.316
			c0,0.59-0.478,1.063-1.067,1.063H53.965c-0.589,0-1.066-0.478-1.066-1.063V6.195c0-0.588,0.477-1.066,1.066-1.066h12.121
			c0.589,0,1.067,0.478,1.067,1.066L67.154,18.316L67.154,18.316z"/>
	</g>
</g>
</svg>
