<?xml version="1.0" encoding="utf-8"?>
<!-- Generator: Adobe Illustrator 17.0.0, SVG Export Plug-In . SVG Version: 6.00 Build 0)  -->
<!DOCTYPE svg PUBLIC "-//W3C//DTD SVG 1.1//EN" "http://www.w3.org/Graphics/SVG/1.1/DTD/svg11.dtd" [
	<!ENTITY ns_extend "http://ns.adobe.com/Extensibility/1.0/">
	<!ENTITY ns_ai "http://ns.adobe.com/AdobeIllustrator/10.0/">
	<!ENTITY ns_graphs "http://ns.adobe.com/Graphs/1.0/">
	<!ENTITY ns_vars "http://ns.adobe.com/Variables/1.0/">
	<!ENTITY ns_imrep "http://ns.adobe.com/ImageReplacement/1.0/">
	<!ENTITY ns_sfw "http://ns.adobe.com/SaveForWeb/1.0/">
	<!ENTITY ns_custom "http://ns.adobe.com/GenericCustomNamespace/1.0/">
	<!ENTITY ns_adobe_xpath "http://ns.adobe.com/XPath/1.0/">
]>
<svg version="1.1" id="Capa_1" xmlns:x="&ns_extend;" xmlns:i="&ns_ai;" xmlns:graph="&ns_graphs;"
	 xmlns="http://www.w3.org/2000/svg" xmlns:xlink="http://www.w3.org/1999/xlink" x="0px" y="0px" width="250.445px"
	 height="71.138px" viewBox="0 -176.568 250.445 71.138" enable-background="new 0 -176.568 250.445 71.138" xml:space="preserve">
<metadata>
	<sfw  xmlns="&ns_sfw;">
		<slices></slices>
		<sliceSourceBounds  width="215.493" height="36.071" y="539.779" x="20.292" bottomLeftOrigin="true"></sliceSourceBounds>
	</sfw>
</metadata>
<g>
	<g>
		<path fill="#E67A1E" d="M26.984-138.933h-6.246v-17.793h5.737c3.191,0,6.586,1.48,6.586,4.811c0,2.282-1.46,3.114-2.444,3.577
			c1.494,0.432,3.497,1.85,3.497,4.04C34.113-140.444,30.718-138.933,26.984-138.933z M26.135-153.888h-1.188v4.595h1.392
			c1.324,0,2.478-0.648,2.478-2.529C28.817-153.148,27.459-153.888,26.135-153.888z M26.576-146.827h-1.629v5.088h1.528
			c2.003,0,3.327-0.709,3.327-2.529C29.801-145.994,27.9-146.827,26.576-146.827z"/>
		<path fill="#E67A1E" d="M45.62-145.346h-1.188v6.414h-4.209v-17.762h5.567c4.447,0,7.299,1.912,7.299,5.304
			C53.088-147.721,50.033-145.346,45.62-145.346z M45.79-153.734h-1.358v5.458h1.018c2.207,0,3.259-1.11,3.259-2.899
			C48.709-152.871,47.827-153.734,45.79-153.734z"/>
		<path fill="#E67A1E" d="M74.815-138.809l-0.611-11.163l-3.938,11.039h-3.598l-3.87-11.07l-0.713,11.194l-4.074-0.154l1.494-17.731
			h4.753l4.379,12.427l4.379-12.427h4.651l1.358,17.731L74.815-138.809z"/>
		<path fill="#FFFFFF" d="M97.694-138.563l-1.867-4.841h-6.178l-1.969,4.841l-4.074-0.493l7.604-17.639h3.632l6.993,17.639
			L97.694-138.563z M92.772-151.946l-1.969,5.674h3.904L92.772-151.946z"/>
		<path fill="#FFFFFF" d="M113.072-138.933h-6.144v-17.762h6.246c6.314,0,8.758,4.132,8.758,8.727
			C121.932-142.17,118.572-138.933,113.072-138.933z M112.97-153.703h-1.833v11.78h1.596c2.987,0,4.719-1.449,4.719-6.106
			C117.451-150.959,116.195-153.703,112.97-153.703z"/>
		<path fill="#FFFFFF" d="M135.612-138.933h-3.429l-7.536-17.7l4.719-0.493l4.956,13.414l5.5-13.383l4.277,0.524L135.612-138.933z"
			/>
		<path fill="#FFFFFF" d="M155.335-138.501c-5.941,0-8.521-4.502-8.521-9.344c0-5.458,3.531-9.436,8.521-9.436
			c5.941,0,8.555,4.564,8.555,9.436C163.89-142.386,160.291-138.501,155.335-138.501z M155.132-154.073
			c-3.497,0-3.938,3.515-3.938,5.705c-0.034,2.498,0.374,6.784,4.311,6.784c3.564,0,3.972-3.577,3.972-5.828
			C159.477-149.88,159.137-154.073,155.132-154.073z"/>
		<path fill="#FFFFFF" d="M177.468-138.501c-5.499,0-9.166-2.837-9.166-9.467c0-5.612,3.802-9.22,9.879-9.22
			c1.595,0,3.462,0.462,5.024,1.202l-1.392,2.775c-1.663-0.586-2.648-0.863-3.666-0.863c-2.41,0-5.5,1.357-5.5,6.013
			c0,5.119,2.105,6.352,4.923,6.352c2.003,0,2.817-0.277,5.024-1.079l1.12,2.93C182.085-139.149,179.811-138.501,177.468-138.501z"
			/>
		<path fill="#FFFFFF" d="M199.839-138.563l-1.867-4.841h-6.178l-1.969,4.841l-4.074-0.493l7.604-17.639h3.632l6.993,17.639
			L199.839-138.563z M194.917-151.946l-1.969,5.674h3.904L194.917-151.946z"/>
		<path fill="#FFFFFF" d="M214.097-153.518v14.586h-4.21v-14.586h-5.737v-3.176h15.786v3.176H214.097z"/>
		<path fill="#FFFFFF" d="M229.101-138.501c-2.546,0-4.617-0.771-6.722-1.665l1.765-3.084c1.697,0.863,3.734,1.511,4.99,1.511
			c1.833,0,2.648-0.771,2.648-1.819c0-2.93-8.623-3.423-8.623-8.85c0-2.744,2.478-4.81,6.111-4.81c2.682,0,4.854,0.678,6.246,1.357
			l-1.494,2.929c-1.596-0.802-3.055-1.295-4.481-1.295c-1.154,0-2.003,0.709-2.003,1.542c0,2.868,8.691,3.392,8.691,8.85
			C236.23-140.166,233.48-138.501,229.101-138.501z"/>
	</g>
	<g>
		<path fill="#FFFFFF" d="M44.172-121.43h-2.542v-7.97h2.335c1.299,0,2.68,0.663,2.68,2.155c0,1.023-0.594,1.395-0.995,1.603
			c0.608,0.193,1.423,0.829,1.423,1.81C47.074-122.107,45.692-121.43,44.172-121.43z M43.827-128.13h-0.484v2.058h0.566
			c0.539,0,1.008-0.29,1.008-1.133C44.918-127.798,44.366-128.13,43.827-128.13z M44.007-124.966h-0.663v2.279h0.622
			c0.815,0,1.354-0.318,1.354-1.133C45.319-124.593,44.545-124.966,44.007-124.966z"/>
		<path fill="#FFFFFF" d="M52.473-121.264c-1.81,0-3.122-1.091-3.122-2.818v-5.304h1.713v5.36c0,0.732,0.539,1.395,1.409,1.395
			c0.857,0,1.395-0.608,1.395-1.423v-5.332h1.713v5.304C55.581-122.259,54.02-121.264,52.473-121.264z"/>
		<path fill="#FFFFFF" d="M60.262-128.005v1.865h2.583v1.395h-2.583v3.315h-1.713v-7.957h4.807v1.381H60.262z"/>
		<path fill="#FFFFFF" d="M65.566-121.43v-7.957h4.807v1.368h-3.094v1.823h2.583v1.354h-2.583v2.044h3.44v1.368H65.566z"/>
		<path fill="#FFFFFF" d="M75.869-127.964v6.534h-1.713v-6.534h-2.335v-1.423h6.423v1.423H75.869z"/>
		<path fill="#FFFFFF" d="M86.407-124.303h-0.484v2.873h-1.713v-7.957h2.266c1.81,0,2.97,0.856,2.97,2.376
			C89.446-125.367,88.203-124.303,86.407-124.303z M86.476-128.061h-0.553v2.445h0.414c0.898,0,1.326-0.497,1.326-1.298
			C87.664-127.674,87.305-128.061,86.476-128.061z"/>
		<path fill="#FFFFFF" d="M94.224-121.237c-2.418,0-3.467-2.017-3.467-4.185c0-2.445,1.437-4.227,3.467-4.227
			c2.417,0,3.481,2.044,3.481,4.227C97.705-122.977,96.241-121.237,94.224-121.237z M94.142-128.212
			c-1.423,0-1.602,1.575-1.602,2.555c-0.014,1.119,0.152,3.039,1.754,3.039c1.451,0,1.616-1.602,1.616-2.611
			C95.91-126.334,95.772-128.212,94.142-128.212z"/>
		<path fill="#FFFFFF" d="M105.08-121.43l-3.301-5.208l0.041,5.208h-1.63v-7.957h1.754l3.163,4.973l-0.055-4.973h1.616v7.957H105.08
			z"/>
		<path fill="#FFFFFF" d="M111.64-121.237c-1.036,0-1.879-0.345-2.735-0.746l0.718-1.381c0.691,0.387,1.52,0.677,2.031,0.677
			c0.746,0,1.078-0.345,1.078-0.815c0-1.312-3.509-1.533-3.509-3.965c0-1.229,1.008-2.155,2.487-2.155
			c1.091,0,1.975,0.304,2.542,0.608l-0.608,1.312c-0.649-0.359-1.243-0.58-1.823-0.58c-0.47,0-0.815,0.318-0.815,0.691
			c0,1.285,3.536,1.519,3.536,3.964C114.541-121.983,113.422-121.237,111.64-121.237z"/>
		<path fill="#E67A1E" d="M127.938-121.223c-0.635,0-1.05-0.166-1.437-0.47c-0.166-0.124-0.332-0.276-0.497-0.442
			c-0.622,0.539-1.478,0.926-2.639,0.926c-1.409,0-2.707-1.036-2.707-2.335c0-1.147,0.801-1.81,1.575-2.362
			c-0.511-0.553-0.981-1.105-0.981-1.727c0-1.091,0.912-1.962,2.224-1.962c1.257,0,2.238,0.815,2.238,1.893
			c0,0.76-0.414,1.478-1.271,2.017c0.332,0.331,0.843,0.898,1.354,1.395c0.401-0.718,0.732-1.602,0.981-2.39
			c0,0,0.912,0.276,1.533,0.456c-0.401,0.994-0.774,2.03-1.354,2.956c0.166,0.152,0.29,0.332,0.428,0.484
			c0.207,0.207,0.414,0.359,0.76,0.345c0.18,0,0.566-0.248,0.649-0.29l0.594,1.008C128.781-121.319,128.297-121.223,127.938-121.223
			z M123.173-124.911c-0.484,0.359-0.829,0.718-0.829,1.133c0,0.746,0.456,1.298,1.202,1.298c0.566,0,1.008-0.401,1.368-0.705
			C124.25-123.806,123.532-124.566,123.173-124.911z M123.504-128.351c-0.401,0-0.663,0.332-0.663,0.691
			c0,0.207,0.166,0.594,0.58,1.036c0.484-0.318,0.718-0.691,0.718-1.064C124.14-128.033,123.863-128.351,123.504-128.351z"/>
		<path fill="#FFFFFF" d="M141.984-121.375l-0.248-5.001l-1.603,4.945h-1.464l-1.575-4.959l-0.29,5.014l-1.658-0.069l0.608-7.943
			h1.934l1.782,5.567l1.782-5.567h1.892l0.553,7.943L141.984-121.375z"/>
		<path fill="#FFFFFF" d="M149.442-121.237c-2.418,0-3.467-2.017-3.467-4.185c0-2.445,1.436-4.227,3.467-4.227
			c2.418,0,3.481,2.044,3.481,4.227C152.923-122.977,151.459-121.237,149.442-121.237z M149.359-128.212
			c-1.423,0-1.602,1.575-1.602,2.555c-0.014,1.119,0.152,3.039,1.754,3.039c1.45,0,1.616-1.602,1.616-2.611
			C151.127-126.334,150.989-128.212,149.359-128.212z"/>
		<path fill="#FFFFFF" d="M160.298-121.43l-3.302-5.208l0.041,5.208h-1.63v-7.957h1.754l3.163,4.973l-0.055-4.973h1.616v7.957
			H160.298z"/>
		<path fill="#FFFFFF" d="M167.866-127.964v6.534h-1.713v-6.534h-2.335v-1.423h6.423v1.423H167.866z"/>
		<path fill="#FFFFFF" d="M173.971-121.237c-1.036,0-1.879-0.345-2.735-0.746l0.718-1.381c0.691,0.387,1.519,0.677,2.031,0.677
			c0.746,0,1.077-0.345,1.077-0.815c0-1.312-3.509-1.533-3.509-3.965c0-1.229,1.008-2.155,2.486-2.155
			c1.091,0,1.975,0.304,2.542,0.608l-0.608,1.312c-0.649-0.359-1.243-0.58-1.823-0.58c-0.47,0-0.815,0.318-0.815,0.691
			c0,1.285,3.536,1.519,3.536,3.964C176.871-121.983,175.752-121.237,173.971-121.237z"/>
		<path fill="#FFFFFF" d="M179.232-121.43v-7.957h4.807v1.368h-3.094v1.823h2.583v1.354h-2.583v2.044h3.44v1.368H179.232z"/>
		<path fill="#FFFFFF" d="M190.558-121.306l-1.437-3.398h-0.138h-0.539v3.274h-1.713v-7.957h2.335c1.865,0,2.846,1.05,2.846,2.307
			c0,1.036-0.718,1.685-1.285,2.003l1.851,3.55L190.558-121.306z M189.066-128.088h-0.622v2.086h0.622
			c0.705,0,1.105-0.332,1.105-0.995C190.172-127.577,189.84-128.088,189.066-128.088z"/>
		<path fill="#FFFFFF" d="M198.582-121.306l-1.437-3.398h-0.138h-0.539v3.274h-1.713v-7.957h2.335c1.865,0,2.845,1.05,2.845,2.307
			c0,1.036-0.718,1.685-1.285,2.003l1.851,3.55L198.582-121.306z M197.09-128.088h-0.622v2.086h0.622
			c0.705,0,1.105-0.332,1.105-0.995C198.196-127.577,197.864-128.088,197.09-128.088z"/>
		<path fill="#FFFFFF" d="M207.408-121.264l-0.76-2.169h-2.514l-0.801,2.169l-1.658-0.221l3.094-7.902h1.478l2.845,7.902
			L207.408-121.264z M205.405-127.259l-0.801,2.542h1.589L205.405-127.259z"/>
		<path fill="#FFFFFF" d="M213.209-127.964v6.534h-1.713v-6.534h-2.335v-1.423h6.423v1.423H213.209z"/>
	</g>
</g>
</svg>
