<?xml version="1.0" encoding="utf-8"?>
<!-- Generator: Adobe Illustrator 17.0.0, SVG Export Plug-In . SVG Version: 6.00 Build 0)  -->
<!DOCTYPE svg PUBLIC "-//W3C//DTD SVG 1.1//EN" "http://www.w3.org/Graphics/SVG/1.1/DTD/svg11.dtd" [
	<!ENTITY ns_extend "http://ns.adobe.com/Extensibility/1.0/">
	<!ENTITY ns_ai "http://ns.adobe.com/AdobeIllustrator/10.0/">
	<!ENTITY ns_graphs "http://ns.adobe.com/Graphs/1.0/">
	<!ENTITY ns_vars "http://ns.adobe.com/Variables/1.0/">
	<!ENTITY ns_imrep "http://ns.adobe.com/ImageReplacement/1.0/">
	<!ENTITY ns_sfw "http://ns.adobe.com/SaveForWeb/1.0/">
	<!ENTITY ns_custom "http://ns.adobe.com/GenericCustomNamespace/1.0/">
	<!ENTITY ns_adobe_xpath "http://ns.adobe.com/XPath/1.0/">
]>
<svg version="1.1" id="Capa_1" xmlns:x="&ns_extend;" xmlns:i="&ns_ai;" xmlns:graph="&ns_graphs;"
	 xmlns="http://www.w3.org/2000/svg" xmlns:xlink="http://www.w3.org/1999/xlink" x="0px" y="0px" width="237px" height="64px"
	 viewBox="-35.995 -20.5 237 64" enable-background="new -35.995 -20.5 237 64" xml:space="preserve">
<metadata>
	<sfw  xmlns="&ns_sfw;">
		<slices></slices>
		<sliceSourceBounds  width="215.493" height="36.071" y="382.872" x="191.943" bottomLeftOrigin="true"></sliceSourceBounds>
	</sfw>
</metadata>
<g>
	<g>
		<path fill="#E67A1E" d="M-18.806,15.904h-6.246V-1.889h5.737c3.191,0,6.586,1.48,6.586,4.811c0,2.282-1.46,3.114-2.444,3.577
			c1.494,0.432,3.497,1.85,3.497,4.04C-11.677,14.393-15.072,15.904-18.806,15.904z M-19.654,0.948h-1.188v4.595h1.392
			c1.324,0,2.478-0.648,2.478-2.529C-16.973,1.688-18.33,0.948-19.654,0.948z M-19.213,8.01h-1.629v5.088h1.528
			c2.003,0,3.327-0.709,3.327-2.529C-15.988,8.842-17.889,8.01-19.213,8.01z"/>
		<path fill="#E67A1E" d="M-0.169,9.49h-1.188v6.414h-4.209V-1.858H0c4.447,0,7.299,1.912,7.299,5.304
			C7.299,7.116,4.244,9.49-0.169,9.49z M0,1.103h-1.358v5.458h1.018c2.207,0,3.259-1.11,3.259-2.899C2.92,1.966,2.037,1.103,0,1.103
			z"/>
		<path fill="#E67A1E" d="M29.025,16.027L28.414,4.865l-3.938,11.039h-3.598l-3.87-11.07l-0.713,11.194l-4.074-0.154l1.494-17.731
			h4.753l4.379,12.427l4.379-12.427h4.651l1.358,17.731L29.025,16.027z"/>
		<path fill="#FFFFFF" d="M51.905,16.274l-1.867-4.841h-6.178l-1.969,4.841l-4.074-0.493l7.604-17.639h3.632l6.993,17.639
			L51.905,16.274z M46.982,2.891l-1.969,5.674h3.904L46.982,2.891z"/>
		<path fill="#FFFFFF" d="M67.283,15.904h-6.144V-1.858h6.246c6.314,0,8.758,4.132,8.758,8.727
			C76.143,12.666,72.782,15.904,67.283,15.904z M67.181,1.133h-1.833v11.78h1.596c2.987,0,4.719-1.449,4.719-6.106
			C71.662,3.878,70.406,1.133,67.181,1.133z"/>
		<path fill="#FFFFFF" d="M89.823,15.904h-3.429l-7.536-17.7l4.719-0.493l4.956,13.414l5.5-13.383l4.277,0.524L89.823,15.904z"/>
		<path fill="#FFFFFF" d="M109.546,16.336c-5.941,0-8.521-4.502-8.521-9.344c0-5.458,3.531-9.436,8.521-9.436
			c5.941,0,8.555,4.564,8.555,9.436C118.101,12.45,114.502,16.336,109.546,16.336z M109.342,0.763c-3.497,0-3.938,3.515-3.938,5.705
			c-0.034,2.498,0.374,6.784,4.311,6.784c3.564,0,3.972-3.577,3.972-5.828C113.688,4.957,113.348,0.763,109.342,0.763z"/>
		<path fill="#FFFFFF" d="M131.679,16.336c-5.499,0-9.166-2.837-9.166-9.467c0-5.612,3.802-9.22,9.879-9.22
			c1.595,0,3.462,0.462,5.024,1.203l-1.392,2.775c-1.663-0.586-2.648-0.863-3.666-0.863c-2.41,0-5.5,1.357-5.5,6.013
			c0,5.119,2.105,6.352,4.923,6.352c2.003,0,2.817-0.277,5.024-1.079l1.12,2.93C136.296,15.688,134.021,16.336,131.679,16.336z"/>
		<path fill="#FFFFFF" d="M154.05,16.274l-1.867-4.841h-6.178l-1.969,4.841l-4.074-0.493l7.604-17.639h3.632l6.993,17.639
			L154.05,16.274z M149.127,2.891l-1.969,5.674h3.904L149.127,2.891z"/>
		<path fill="#FFFFFF" d="M168.307,1.319v14.586h-4.21V1.319h-5.737v-3.176h15.786v3.176H168.307z"/>
		<path fill="#FFFFFF" d="M183.312,16.336c-2.546,0-4.617-0.771-6.722-1.665l1.765-3.084c1.697,0.863,3.734,1.511,4.99,1.511
			c1.833,0,2.648-0.771,2.648-1.819c0-2.93-8.623-3.423-8.623-8.85c0-2.744,2.478-4.81,6.111-4.81c2.682,0,4.854,0.678,6.246,1.357
			l-1.494,2.929c-1.596-0.802-3.055-1.295-4.481-1.295c-1.154,0-2.003,0.709-2.003,1.542c0,2.868,8.691,3.392,8.691,8.85
			C190.441,14.671,187.691,16.336,183.312,16.336z"/>
	</g>
	<g>
		<path fill="#FFFFFF" d="M-1.617,33.407h-2.542v-7.97h2.335c1.299,0,2.68,0.663,2.68,2.155c0,1.023-0.594,1.395-0.995,1.603
			c0.608,0.193,1.423,0.829,1.423,1.81C1.284,32.73-0.097,33.407-1.617,33.407z M-1.962,26.707h-0.484v2.058h0.566
			c0.539,0,1.008-0.29,1.008-1.133C-0.871,27.039-1.423,26.707-1.962,26.707z M-1.783,29.87h-0.663v2.279h0.622
			c0.815,0,1.354-0.318,1.354-1.133C-0.47,30.243-1.244,29.87-1.783,29.87z"/>
		<path fill="#FFFFFF" d="M6.684,33.573c-1.81,0-3.122-1.091-3.122-2.818V25.45h1.713v5.36c0,0.732,0.539,1.395,1.409,1.395
			c0.857,0,1.395-0.608,1.395-1.423V25.45h1.713v5.304C9.792,32.578,8.231,33.573,6.684,33.573z"/>
		<path fill="#FFFFFF" d="M14.473,26.831v1.865h2.583v1.395h-2.583v3.315H12.76V25.45h4.807v1.381H14.473z"/>
		<path fill="#FFFFFF" d="M19.776,33.407V25.45h4.807v1.368h-3.094v1.823h2.583v1.354h-2.583v2.044h3.44v1.368H19.776z"/>
		<path fill="#FFFFFF" d="M30.08,26.873v6.534h-1.713v-6.534h-2.335V25.45h6.423v1.423H30.08z"/>
		<path fill="#FFFFFF" d="M40.618,30.534h-0.484v2.873h-1.713V25.45h2.266c1.81,0,2.97,0.856,2.97,2.376
			C43.657,29.47,42.414,30.534,40.618,30.534z M40.687,26.776h-0.553v2.445h0.414c0.898,0,1.326-0.497,1.326-1.298
			C41.875,27.163,41.516,26.776,40.687,26.776z"/>
		<path fill="#FFFFFF" d="M48.435,33.6c-2.418,0-3.467-2.017-3.467-4.185c0-2.445,1.437-4.227,3.467-4.227
			c2.417,0,3.481,2.044,3.481,4.227C51.916,31.86,50.452,33.6,48.435,33.6z M48.352,26.624c-1.423,0-1.602,1.575-1.602,2.555
			c-0.014,1.119,0.152,3.039,1.754,3.039c1.451,0,1.616-1.602,1.616-2.611C50.12,28.503,49.982,26.624,48.352,26.624z"/>
		<path fill="#FFFFFF" d="M59.291,33.407l-3.301-5.208l0.041,5.208h-1.63V25.45h1.754l3.163,4.973l-0.055-4.973h1.616v7.957H59.291z
			"/>
		<path fill="#FFFFFF" d="M65.851,33.6c-1.036,0-1.879-0.345-2.735-0.746l0.718-1.381c0.691,0.387,1.52,0.677,2.031,0.677
			c0.746,0,1.078-0.345,1.078-0.815c0-1.312-3.509-1.533-3.509-3.965c0-1.229,1.008-2.155,2.487-2.155
			c1.091,0,1.975,0.304,2.542,0.608l-0.608,1.312c-0.649-0.359-1.243-0.58-1.823-0.58c-0.47,0-0.815,0.318-0.815,0.691
			c0,1.285,3.536,1.519,3.536,3.964C68.752,32.854,67.633,33.6,65.851,33.6z"/>
		<path fill="#E67A1E" d="M82.149,33.614c-0.635,0-1.05-0.166-1.437-0.47c-0.166-0.124-0.332-0.276-0.497-0.442
			c-0.622,0.539-1.478,0.926-2.639,0.926c-1.409,0-2.707-1.036-2.707-2.335c0-1.147,0.801-1.81,1.575-2.362
			c-0.511-0.553-0.981-1.105-0.981-1.727c0-1.091,0.912-1.962,2.224-1.962c1.257,0,2.238,0.815,2.238,1.893
			c0,0.76-0.414,1.478-1.271,2.017c0.332,0.331,0.843,0.898,1.354,1.395c0.401-0.718,0.732-1.602,0.981-2.39
			c0,0,0.912,0.276,1.533,0.456c-0.401,0.994-0.774,2.03-1.354,2.956c0.166,0.152,0.29,0.332,0.428,0.484
			c0.207,0.207,0.414,0.359,0.76,0.345c0.18,0,0.566-0.248,0.649-0.29l0.594,1.008C82.992,33.518,82.508,33.614,82.149,33.614z
			 M77.383,29.926c-0.484,0.359-0.829,0.718-0.829,1.133c0,0.746,0.456,1.298,1.202,1.298c0.566,0,1.008-0.401,1.368-0.705
			C78.461,31.031,77.742,30.271,77.383,29.926z M77.715,26.486c-0.401,0-0.663,0.332-0.663,0.691c0,0.207,0.166,0.594,0.58,1.036
			c0.484-0.318,0.718-0.691,0.718-1.064C78.35,26.804,78.074,26.486,77.715,26.486z"/>
		<path fill="#FFFFFF" d="M96.195,33.462l-0.248-5.001l-1.603,4.945H92.88l-1.575-4.959l-0.29,5.014l-1.658-0.069l0.608-7.943h1.934
			l1.782,5.567l1.782-5.567h1.892l0.553,7.943L96.195,33.462z"/>
		<path fill="#FFFFFF" d="M103.653,33.6c-2.418,0-3.467-2.017-3.467-4.185c0-2.445,1.436-4.227,3.467-4.227
			c2.418,0,3.481,2.044,3.481,4.227C107.134,31.86,105.67,33.6,103.653,33.6z M103.57,26.624c-1.423,0-1.602,1.575-1.602,2.555
			c-0.014,1.119,0.152,3.039,1.754,3.039c1.45,0,1.616-1.602,1.616-2.611C105.338,28.503,105.2,26.624,103.57,26.624z"/>
		<path fill="#FFFFFF" d="M114.509,33.407l-3.302-5.208l0.041,5.208h-1.63V25.45h1.754l3.163,4.973l-0.055-4.973h1.616v7.957
			H114.509z"/>
		<path fill="#FFFFFF" d="M122.077,26.873v6.534h-1.713v-6.534h-2.335V25.45h6.423v1.423H122.077z"/>
		<path fill="#FFFFFF" d="M128.181,33.6c-1.036,0-1.879-0.345-2.735-0.746l0.718-1.381c0.691,0.387,1.519,0.677,2.031,0.677
			c0.746,0,1.077-0.345,1.077-0.815c0-1.312-3.509-1.533-3.509-3.965c0-1.229,1.008-2.155,2.486-2.155
			c1.091,0,1.975,0.304,2.542,0.608l-0.608,1.312c-0.649-0.359-1.243-0.58-1.823-0.58c-0.47,0-0.815,0.318-0.815,0.691
			c0,1.285,3.536,1.519,3.536,3.964C131.082,32.854,129.963,33.6,128.181,33.6z"/>
		<path fill="#FFFFFF" d="M133.443,33.407V25.45h4.807v1.368h-3.094v1.823h2.583v1.354h-2.583v2.044h3.44v1.368H133.443z"/>
		<path fill="#FFFFFF" d="M144.769,33.531l-1.437-3.398h-0.138h-0.539v3.274h-1.713V25.45h2.335c1.865,0,2.846,1.05,2.846,2.307
			c0,1.036-0.718,1.685-1.285,2.003l1.851,3.55L144.769,33.531z M143.277,26.748h-0.622v2.086h0.622
			c0.705,0,1.105-0.332,1.105-0.995C144.382,27.26,144.05,26.748,143.277,26.748z"/>
		<path fill="#FFFFFF" d="M152.793,33.531l-1.437-3.398h-0.138h-0.539v3.274h-1.713V25.45h2.335c1.865,0,2.845,1.05,2.845,2.307
			c0,1.036-0.718,1.685-1.285,2.003l1.851,3.55L152.793,33.531z M151.301,26.748h-0.622v2.086h0.622
			c0.705,0,1.105-0.332,1.105-0.995C152.406,27.26,152.074,26.748,151.301,26.748z"/>
		<path fill="#FFFFFF" d="M161.619,33.573l-0.76-2.169h-2.514l-0.801,2.169l-1.658-0.221l3.094-7.902h1.478l2.845,7.902
			L161.619,33.573z M159.615,27.577l-0.801,2.542h1.589L159.615,27.577z"/>
		<path fill="#FFFFFF" d="M167.419,26.873v6.534h-1.713v-6.534h-2.335V25.45h6.423v1.423H167.419z"/>
	</g>
</g>
</svg>
