<?xml version="1.0" encoding="utf-8"?>
<!-- Generator: Adobe Illustrator 17.0.0, SVG Export Plug-In . SVG Version: 6.00 Build 0)  -->
<!DOCTYPE svg PUBLIC "-//W3C//DTD SVG 1.0//EN" "http://www.w3.org/TR/2001/REC-SVG-20010904/DTD/svg10.dtd" [
	<!ENTITY ns_extend "http://ns.adobe.com/Extensibility/1.0/">
	<!ENTITY ns_ai "http://ns.adobe.com/AdobeIllustrator/10.0/">
	<!ENTITY ns_graphs "http://ns.adobe.com/Graphs/1.0/">
	<!ENTITY ns_vars "http://ns.adobe.com/Variables/1.0/">
	<!ENTITY ns_imrep "http://ns.adobe.com/ImageReplacement/1.0/">
	<!ENTITY ns_sfw "http://ns.adobe.com/SaveForWeb/1.0/">
	<!ENTITY ns_custom "http://ns.adobe.com/GenericCustomNamespace/1.0/">
	<!ENTITY ns_adobe_xpath "http://ns.adobe.com/XPath/1.0/">
]>
<svg version="1.0" id="Capa_1" xmlns:x="&ns_extend;" xmlns:i="&ns_ai;" xmlns:graph="&ns_graphs;"
	 xmlns="http://www.w3.org/2000/svg" xmlns:xlink="http://www.w3.org/1999/xlink" x="0px" y="0px" width="250.445px"
	 height="71.138px" viewBox="0 0 250.445 71.138" enable-background="new 0 0 250.445 71.138" xml:space="preserve">
<metadata>
	<sfw  xmlns="&ns_sfw;">
		<slices></slices>
		<sliceSourceBounds  height="36.072" width="215.491" x="193.015" y="379.207" bottomLeftOrigin="true"></sliceSourceBounds>
	</sfw>
</metadata>
<g>
	<g>
		<path fill="#E67A1E" d="M24.984,39.138h-6.246V21.345h5.737c3.191,0,6.586,1.48,6.586,4.811c0,2.282-1.46,3.114-2.444,3.577
			c1.494,0.432,3.497,1.85,3.497,4.04C32.113,37.627,28.718,39.138,24.984,39.138z M24.135,24.183h-1.188v4.595h1.392
			c1.324,0,2.478-0.648,2.478-2.529C26.817,24.923,25.459,24.183,24.135,24.183z M24.576,31.244h-1.629v5.088h1.528
			c2.003,0,3.327-0.709,3.327-2.529C27.801,32.077,25.9,31.244,24.576,31.244z"/>
		<path fill="#E67A1E" d="M43.62,32.725h-1.188v6.414h-4.209V21.377h5.567c4.447,0,7.299,1.912,7.299,5.304
			C51.088,30.35,48.033,32.725,43.62,32.725z M43.79,24.337h-1.358v5.458h1.018c2.207,0,3.259-1.11,3.259-2.899
			C46.709,25.2,45.827,24.337,43.79,24.337z"/>
		<path fill="#E67A1E" d="M72.815,39.262l-0.611-11.163l-3.938,11.039h-3.598l-3.87-11.07l-0.713,11.194l-4.074-0.154l1.494-17.731
			h4.753l4.379,12.427l4.379-12.427h4.651l1.358,17.731L72.815,39.262z"/>
		<path fill="#CCCCCC" d="M95.694,39.508l-1.867-4.841h-6.178l-1.969,4.841l-4.074-0.493l7.604-17.639h3.632l6.993,17.639
			L95.694,39.508z M90.772,26.125l-1.969,5.674h3.904L90.772,26.125z"/>
		<path fill="#CCCCCC" d="M111.072,39.138h-6.144V21.376h6.246c6.314,0,8.758,4.132,8.758,8.727
			C119.932,35.901,116.572,39.138,111.072,39.138z M110.97,24.368h-1.833v11.78h1.596c2.987,0,4.719-1.449,4.719-6.106
			C115.451,27.112,114.195,24.368,110.97,24.368z"/>
		<path fill="#CCCCCC" d="M133.612,39.138h-3.429l-7.536-17.7l4.719-0.493l4.956,13.414l5.5-13.383l4.277,0.524L133.612,39.138z"/>
		<path fill="#CCCCCC" d="M153.335,39.57c-5.941,0-8.521-4.502-8.521-9.344c0-5.458,3.531-9.436,8.521-9.436
			c5.941,0,8.555,4.564,8.555,9.436C161.89,35.685,158.291,39.57,153.335,39.57z M153.132,23.998c-3.497,0-3.938,3.515-3.938,5.705
			c-0.034,2.498,0.374,6.784,4.311,6.784c3.564,0,3.972-3.577,3.972-5.828C157.477,28.191,157.137,23.998,153.132,23.998z"/>
		<path fill="#CCCCCC" d="M175.468,39.57c-5.499,0-9.166-2.837-9.166-9.467c0-5.612,3.802-9.22,9.879-9.22
			c1.595,0,3.462,0.462,5.024,1.202l-1.392,2.775c-1.663-0.586-2.648-0.863-3.666-0.863c-2.41,0-5.5,1.357-5.5,6.013
			c0,5.119,2.105,6.352,4.923,6.352c2.003,0,2.817-0.277,5.024-1.079l1.12,2.93C180.085,38.922,177.811,39.57,175.468,39.57z"/>
		<path fill="#CCCCCC" d="M197.839,39.508l-1.867-4.841h-6.178l-1.969,4.841l-4.074-0.493l7.604-17.639h3.632l6.993,17.639
			L197.839,39.508z M192.917,26.125l-1.969,5.674h3.904L192.917,26.125z"/>
		<path fill="#CCCCCC" d="M212.097,24.553v14.586h-4.21V24.553h-5.737v-3.176h15.786v3.176H212.097z"/>
		<path fill="#CCCCCC" d="M227.101,39.57c-2.546,0-4.617-0.771-6.722-1.665l1.765-3.084c1.697,0.863,3.734,1.511,4.99,1.511
			c1.833,0,2.648-0.771,2.648-1.819c0-2.93-8.623-3.423-8.623-8.85c0-2.744,2.478-4.81,6.111-4.81c2.682,0,4.854,0.678,6.246,1.357
			l-1.494,2.929c-1.596-0.802-3.055-1.295-4.481-1.295c-1.154,0-2.003,0.709-2.003,1.542c0,2.868,8.691,3.392,8.691,8.85
			C234.23,37.905,231.48,39.57,227.101,39.57z"/>
	</g>
	<g>
		<path fill="#CCCCCC" d="M42.172,56.641H39.63v-7.97h2.335c1.299,0,2.68,0.663,2.68,2.155c0,1.023-0.594,1.395-0.995,1.603
			c0.608,0.193,1.423,0.829,1.423,1.81C45.074,55.964,43.692,56.641,42.172,56.641z M41.827,49.941h-0.484v2.058h0.566
			c0.539,0,1.008-0.29,1.008-1.133C42.918,50.273,42.366,49.941,41.827,49.941z M42.007,53.105h-0.663v2.279h0.622
			c0.815,0,1.354-0.318,1.354-1.133C43.319,53.478,42.545,53.105,42.007,53.105z"/>
		<path fill="#CCCCCC" d="M50.473,56.807c-1.81,0-3.122-1.091-3.122-2.818v-5.304h1.713v5.36c0,0.732,0.539,1.395,1.409,1.395
			c0.857,0,1.395-0.608,1.395-1.423v-5.332h1.713v5.304C53.581,55.812,52.02,56.807,50.473,56.807z"/>
		<path fill="#CCCCCC" d="M58.262,50.066v1.865h2.583v1.395h-2.583v3.315h-1.713v-7.957h4.807v1.381h-3.094V50.066z"/>
		<path fill="#CCCCCC" d="M63.566,56.641v-7.957h4.807v1.368h-3.094v1.823h2.583v1.354h-2.583v2.044h3.44v1.368
			C68.719,56.641,63.566,56.641,63.566,56.641z"/>
		<path fill="#CCCCCC" d="M73.869,50.107v6.534h-1.713v-6.534h-2.335v-1.423h6.423v1.423H73.869z"/>
		<path fill="#CCCCCC" d="M84.407,53.768h-0.484v2.873H82.21v-7.957h2.266c1.81,0,2.97,0.856,2.97,2.376
			C87.446,52.704,86.203,53.768,84.407,53.768z M84.476,50.01h-0.553v2.445h0.414c0.898,0,1.326-0.497,1.326-1.298
			C85.664,50.397,85.305,50.01,84.476,50.01z"/>
		<path fill="#CCCCCC" d="M92.224,56.834c-2.418,0-3.467-2.017-3.467-4.185c0-2.445,1.437-4.227,3.467-4.227
			c2.417,0,3.481,2.044,3.481,4.227C95.705,55.094,94.241,56.834,92.224,56.834z M92.142,49.859c-1.423,0-1.602,1.575-1.602,2.555
			c-0.014,1.119,0.152,3.039,1.754,3.039c1.451,0,1.616-1.602,1.616-2.611C93.91,51.737,93.772,49.859,92.142,49.859z"/>
		<path fill="#CCCCCC" d="M103.08,56.641l-3.301-5.208l0.041,5.208h-1.63v-7.957h1.754l3.163,4.973l-0.055-4.973h1.616v7.957
			C104.668,56.641,103.08,56.641,103.08,56.641z"/>
		<path fill="#CCCCCC" d="M109.64,56.834c-1.036,0-1.879-0.345-2.735-0.746l0.718-1.381c0.691,0.387,1.52,0.677,2.031,0.677
			c0.746,0,1.078-0.345,1.078-0.815c0-1.312-3.509-1.533-3.509-3.965c0-1.229,1.008-2.155,2.487-2.155
			c1.091,0,1.975,0.304,2.542,0.608l-0.608,1.312c-0.649-0.359-1.243-0.58-1.823-0.58c-0.47,0-0.815,0.318-0.815,0.691
			c0,1.285,3.536,1.519,3.536,3.964C112.541,56.088,111.422,56.834,109.64,56.834z"/>
		<path fill="#E67A1E" d="M125.938,56.848c-0.635,0-1.05-0.166-1.437-0.47c-0.166-0.124-0.332-0.276-0.497-0.442
			c-0.622,0.539-1.478,0.926-2.639,0.926c-1.409,0-2.707-1.036-2.707-2.335c0-1.147,0.801-1.81,1.575-2.362
			c-0.511-0.553-0.981-1.105-0.981-1.727c0-1.091,0.912-1.962,2.224-1.962c1.257,0,2.238,0.815,2.238,1.893
			c0,0.76-0.414,1.478-1.271,2.017c0.332,0.331,0.843,0.898,1.354,1.395c0.401-0.718,0.732-1.602,0.981-2.39
			c0,0,0.912,0.276,1.533,0.456c-0.401,0.994-0.774,2.03-1.354,2.956c0.166,0.152,0.29,0.332,0.428,0.484
			c0.207,0.207,0.414,0.359,0.76,0.345c0.18,0,0.566-0.248,0.649-0.29l0.594,1.008C126.781,56.752,126.297,56.848,125.938,56.848z
			 M121.173,53.16c-0.484,0.359-0.829,0.718-0.829,1.133c0,0.746,0.456,1.298,1.202,1.298c0.566,0,1.008-0.401,1.368-0.705
			C122.25,54.265,121.532,53.505,121.173,53.16z M121.504,49.72c-0.401,0-0.663,0.332-0.663,0.691c0,0.207,0.166,0.594,0.58,1.036
			c0.484-0.318,0.718-0.691,0.718-1.064C122.14,50.038,121.863,49.72,121.504,49.72z"/>
		<path fill="#CCCCCC" d="M139.984,56.696l-0.248-5.001l-1.603,4.945h-1.464l-1.575-4.959l-0.29,5.014l-1.658-0.069l0.608-7.943
			h1.934l1.782,5.567l1.782-5.567h1.892l0.553,7.943L139.984,56.696z"/>
		<path fill="#CCCCCC" d="M147.442,56.834c-2.418,0-3.467-2.017-3.467-4.185c0-2.445,1.436-4.227,3.467-4.227
			c2.418,0,3.481,2.044,3.481,4.227C150.923,55.094,149.459,56.834,147.442,56.834z M147.359,49.859
			c-1.423,0-1.602,1.575-1.602,2.555c-0.014,1.119,0.152,3.039,1.754,3.039c1.45,0,1.616-1.602,1.616-2.611
			C149.127,51.737,148.989,49.859,147.359,49.859z"/>
		<path fill="#CCCCCC" d="M158.298,56.641l-3.302-5.208l0.041,5.208h-1.63v-7.957h1.754l3.163,4.973l-0.055-4.973h1.616v7.957
			C159.885,56.641,158.298,56.641,158.298,56.641z"/>
		<path fill="#CCCCCC" d="M165.866,50.107v6.534h-1.713v-6.534h-2.335v-1.423h6.423v1.423H165.866z"/>
		<path fill="#CCCCCC" d="M171.971,56.834c-1.036,0-1.879-0.345-2.735-0.746l0.718-1.381c0.691,0.387,1.519,0.677,2.031,0.677
			c0.746,0,1.077-0.345,1.077-0.815c0-1.312-3.509-1.533-3.509-3.965c0-1.229,1.008-2.155,2.486-2.155
			c1.091,0,1.975,0.304,2.542,0.608l-0.608,1.312c-0.649-0.359-1.243-0.58-1.823-0.58c-0.47,0-0.815,0.318-0.815,0.691
			c0,1.285,3.536,1.519,3.536,3.964C174.871,56.088,173.752,56.834,171.971,56.834z"/>
		<path fill="#CCCCCC" d="M177.232,56.641v-7.957h4.807v1.368h-3.094v1.823h2.583v1.354h-2.583v2.044h3.44v1.368
			C182.385,56.641,177.232,56.641,177.232,56.641z"/>
		<path fill="#CCCCCC" d="M188.558,56.765l-1.437-3.398h-0.138h-0.539v3.274h-1.713v-7.957h2.335c1.865,0,2.846,1.05,2.846,2.307
			c0,1.036-0.718,1.685-1.285,2.003l1.851,3.55L188.558,56.765z M187.066,49.983h-0.622v2.086h0.622
			c0.705,0,1.105-0.332,1.105-0.995C188.172,50.494,187.84,49.983,187.066,49.983z"/>
		<path fill="#CCCCCC" d="M196.582,56.765l-1.437-3.398h-0.138h-0.539v3.274h-1.713v-7.957h2.335c1.865,0,2.845,1.05,2.845,2.307
			c0,1.036-0.718,1.685-1.285,2.003l1.851,3.55L196.582,56.765z M195.09,49.983h-0.622v2.086h0.622c0.705,0,1.105-0.332,1.105-0.995
			C196.196,50.494,195.864,49.983,195.09,49.983z"/>
		<path fill="#CCCCCC" d="M205.408,56.807l-0.76-2.169h-2.514l-0.801,2.169l-1.658-0.221l3.094-7.902h1.478l2.845,7.902
			L205.408,56.807z M203.405,50.812l-0.801,2.542h1.589L203.405,50.812z"/>
		<path fill="#CCCCCC" d="M211.209,50.107v6.534h-1.713v-6.534h-2.335v-1.423h6.423v1.423H211.209z"/>
	</g>
</g>
</svg>
