<?xml version="1.0" standalone="no"?>
<!DOCTYPE svg PUBLIC "-//W3C//DTD SVG 20010904//EN"
 "http://www.w3.org/TR/2001/REC-SVG-20010904/DTD/svg10.dtd">
<svg version="1.0" xmlns="http://www.w3.org/2000/svg"
 width="300.000000pt" height="300.000000pt" viewBox="0 0 300.000000 300.000000"
 preserveAspectRatio="xMidYMid meet">
<metadata>
Created by potrace 1.11, written by Peter Selinger 2001-2013
</metadata>
<g transform="translate(0.000000,300.000000) scale(0.100000,-0.100000)"
fill="#000000" stroke="none">
<path d="M0 1500 l0 -1500 1500 0 1500 0 0 1500 0 1500 -1500 0 -1500 0 0
-1500z m654 340 c118 -19 186 -73 201 -160 8 -49 -22 -120 -60 -140 l-24 -13
44 -28 c53 -34 79 -79 79 -139 0 -90 -55 -154 -160 -186 -32 -9 -96 -14 -201
-14 l-153 0 0 345 0 345 108 0 c59 0 134 -4 166 -10z m810 -11 c99 -28 158
-99 158 -190 0 -69 -18 -113 -66 -157 -47 -44 -109 -67 -203 -77 l-63 -7 0
-119 0 -119 -80 0 -80 0 0 347 0 346 148 -6 c81 -4 165 -12 186 -18z m671
-219 c64 -179 85 -230 91 -215 5 11 43 117 85 235 l76 215 83 3 c46 2 87 -1
91 -5 7 -7 63 -673 57 -679 -2 -1 -39 -3 -83 -5 l-80 -4 -11 198 c-6 109 -13
199 -15 201 -2 3 -36 -85 -74 -195 l-70 -199 -71 0 -72 0 -67 195 c-38 107
-71 192 -75 190 -4 -2 -10 -62 -14 -132 -3 -70 -9 -158 -12 -194 l-6 -66 -77
5 c-42 2 -77 6 -79 7 -3 2 45 578 54 643 l5 43 91 -3 91 -3 82 -235z"/>
<path d="M550 1645 l0 -85 35 0 c46 0 80 17 94 47 31 69 -10 123 -94 123 l-35
0 0 -85z"/>
<path d="M550 1365 l0 -95 45 0 c65 0 109 21 125 60 28 67 -31 130 -121 130
l-49 0 0 -95z"/>
<path d="M1298 1724 c-5 -4 -8 -52 -8 -106 l0 -98 35 0 c46 0 101 23 114 48
20 38 13 106 -12 131 -25 22 -115 40 -129 25z"/>
</g>
</svg>
